<?xml version="1.0" encoding="UTF-8" standalone="no"?>
<svg
   xmlns:dc="http://purl.org/dc/elements/1.1/"
   xmlns:cc="http://creativecommons.org/ns#"
   xmlns:rdf="http://www.w3.org/1999/02/22-rdf-syntax-ns#"
   xmlns:svg="http://www.w3.org/2000/svg"
   xmlns="http://www.w3.org/2000/svg"
   xmlns:sodipodi="http://sodipodi.sourceforge.net/DTD/sodipodi-0.dtd"
   xmlns:inkscape="http://www.inkscape.org/namespaces/inkscape"
   xml:space="preserve"
   height="803.96"
   viewBox="0 0 798.66669 803.96002"
   width="798.67"
   version="1.1"
   id="svg571"
   sodipodi:docname="logo_site_bivc.svg"
   inkscape:version="0.92.1 r15371"><metadata
     id="metadata575"><rdf:RDF><cc:Work
         rdf:about=""><dc:format>image/svg+xml</dc:format><dc:type
           rdf:resource="http://purl.org/dc/dcmitype/StillImage" /></cc:Work></rdf:RDF></metadata><sodipodi:namedview
     pagecolor="#ffffff"
     bordercolor="#666666"
     borderopacity="1"
     objecttolerance="10"
     gridtolerance="10"
     guidetolerance="10"
     inkscape:pageopacity="0"
     inkscape:pageshadow="2"
     inkscape:window-width="1817"
     inkscape:window-height="854"
     id="namedview573"
     showgrid="false"
     inkscape:zoom="0.83027611"
     inkscape:cx="401.74383"
     inkscape:cy="401.98001"
     inkscape:window-x="0"
     inkscape:window-y="27"
     inkscape:window-maximized="0"
     inkscape:current-layer="svg571" /><defs
     id="defs59"><clipPath
       id="clipPath18"
       clipPathUnits="userSpaceOnUse"><path
         d="m0 602.97h599v-602.97h-599z"
         id="path2" /></clipPath><clipPath
       id="clipPath26"
       clipPathUnits="userSpaceOnUse"><path
         d="m-542.11 775.69c0-51.783 41.979-93.759 93.761-93.759s93.759 41.976 93.759 93.759c0 51.784-41.977 93.76-93.759 93.76s-93.761-41.976-93.761-93.76"
         id="path5" /></clipPath><clipPath
       id="clipPath34"
       clipPathUnits="userSpaceOnUse"><path
         d="m-53.6 164.77h200.8v310.4h-200.8z"
         id="path8" /></clipPath><clipPath
       id="clipPath42"
       clipPathUnits="userSpaceOnUse"><path
         d="m-53.6 164.77h200.8v310.4h-200.8z"
         id="path11" /></clipPath><clipPath
       id="clipPath50"
       clipPathUnits="userSpaceOnUse"><path
         d="m-53.6 164.77h200.8v310.4h-200.8z"
         id="path14" /></clipPath><clipPath
       id="clipPath64"
       clipPathUnits="userSpaceOnUse"><path
         d="m0 602.97h599v-602.97h-599z"
         id="path17" /></clipPath><clipPath
       id="clipPath72"
       clipPathUnits="userSpaceOnUse"><path
         d="m206.75 956.12c0-51.783 41.977-93.76 93.76-93.76s93.759 41.977 93.759 93.76-41.976 93.76-93.759 93.76-93.76-41.977-93.76-93.76"
         id="path20" /></clipPath><clipPath
       id="clipPath136"
       clipPathUnits="userSpaceOnUse"><path
         d="m0 602.97h599v-602.97h-599z"
         id="path23" /></clipPath><clipPath
       id="clipPath144"
       clipPathUnits="userSpaceOnUse"><path
         d="m-390.62 1117.3c0-51.783 41.978-93.76 93.76-93.76 51.783 0 93.76 41.977 93.76 93.76s-41.977 93.76-93.76 93.76c-51.782 0-93.76-41.977-93.76-93.76"
         id="path26" /></clipPath><clipPath
       id="clipPath152"
       clipPathUnits="userSpaceOnUse"><path
         d="m97.884 506.36h200.8v310.4h-200.8z"
         id="path29" /></clipPath><clipPath
       id="clipPath160"
       clipPathUnits="userSpaceOnUse"><path
         d="m97.884 506.36h200.8v310.4h-200.8z"
         id="path32" /></clipPath><clipPath
       id="clipPath168"
       clipPathUnits="userSpaceOnUse"><path
         d="m97.884 506.36h200.8v310.4h-200.8z"
         id="path35" /></clipPath><clipPath
       id="clipPath182"
       clipPathUnits="userSpaceOnUse"><path
         d="m0 602.97h599v-602.97h-599z"
         id="path38" /></clipPath><clipPath
       id="clipPath190"
       clipPathUnits="userSpaceOnUse"><path
         d="m-675.02 1123.5c0-51.783 41.978-93.76 93.76-93.76 51.783 0 93.76 41.977 93.76 93.76s-41.977 93.76-93.76 93.76c-51.782 0-93.76-41.977-93.76-93.76"
         id="path41" /></clipPath><clipPath
       id="clipPath198"
       clipPathUnits="userSpaceOnUse"><path
         d="m-186.51 512.57h200.8v310.4h-200.8z"
         id="path44" /></clipPath><clipPath
       id="clipPath206"
       clipPathUnits="userSpaceOnUse"><path
         d="m-186.51 512.57h200.8v310.4h-200.8z"
         id="path47" /></clipPath><clipPath
       id="clipPath214"
       clipPathUnits="userSpaceOnUse"><path
         d="m-186.51 512.57h200.8v310.4h-200.8z"
         id="path50" /></clipPath><clipPath
       id="clipPath228"
       clipPathUnits="userSpaceOnUse"><path
         d="m54.34 301.97c0-135.93 110.2-246.12 246.12-246.12 135.93 0 246.12 110.19 246.12 246.12s-110.19 246.12-246.12 246.12c-135.92 0-246.12-110.19-246.12-246.12"
         id="path53" /></clipPath><clipPath
       id="clipPath570"
       clipPathUnits="userSpaceOnUse"><path
         d="m0 602.97h599v-602.97h-599z"
         id="path56" /></clipPath></defs><g
     id="g69"
     clip-path="url(#clipPath18)"
     transform="matrix(1.3333,0,0,-1.3333,0,803.96)"><g
       id="g67"
       clip-path="url(#clipPath26)"><g
         id="g65"
         clip-path="url(#clipPath34)"><g
           id="g63"
           clip-path="url(#clipPath42)"><g
             id="g61"
             clip-path="url(#clipPath50)" /></g></g></g></g><g
     id="g129"
     clip-path="url(#clipPath64)"
     transform="matrix(1.3333,0,0,-1.3333,0,803.96)"><g
       id="g127"
       clip-path="url(#clipPath72)"><g
         id="g73"
         transform="translate(331.58,575.46)"><path
           inkscape:connector-curvature="0"
           id="path71"
           d="m 0,0 c -8.071,0 -19.476,-0.143 -25.356,3.543 -2.129,1.332 -2.049,5.238 -2.049,5.238 0,0 0.14,57.506 0.205,69.053 0.076,11.542 0.85,14.017 2.411,20.892 2.285,10.075 11.972,37.249 13.314,42.844 1.346,5.59 2.338,20.118 2.338,20.118 0,0 0.472,27.042 0.472,27.367 0,0.33 -0.686,1.053 -0.686,1.053 0,0 -0.107,5.249 0.039,5.755 0.143,0.508 0.686,1.485 0.686,1.485 0,0 -0.183,1.591 0.615,2.857 0.795,1.268 7.709,1.268 7.709,1.268 h 2.54 c 0,0 6.917,0 7.713,-1.268 0.795,-1.266 0.613,-2.857 0.613,-2.857 0,0 0.544,-0.977 0.684,-1.485 0.15,-0.506 0.043,-5.755 0.043,-5.755 0,0 -0.686,-0.723 -0.686,-1.053 0,-0.325 0.46,-27.367 0.46,-27.367 0,0 1,-14.528 2.343,-20.118 1.349,-5.595 11.028,-32.769 13.317,-42.844 1.556,-6.875 2.332,-9.35 2.404,-20.892 0.072,-11.547 0.215,-69.053 0.215,-69.053 0,0 0.077,-3.906 -2.055,-5.238 C 21.411,-0.14 10.012,0.003 1.938,0.003 Z"
           style="fill:#49690f" /></g><g
         id="g77"
         transform="translate(331.58,575.46)"><path
           inkscape:connector-curvature="0"
           id="path75"
           d="m 0,0 c -8.071,0 -19.476,-0.143 -25.356,3.543 -2.129,1.332 -2.049,5.238 -2.049,5.238 0,0 0.14,57.506 0.205,69.053 0.076,11.542 0.85,14.017 2.411,20.892 2.285,10.075 11.972,37.249 13.314,42.844 1.346,5.59 2.338,20.118 2.338,20.118 0,0 0.472,27.042 0.472,27.367 0,0.33 -0.686,1.053 -0.686,1.053 0,0 -0.107,5.249 0.039,5.755 0.143,0.508 0.686,1.485 0.686,1.485 0,0 -0.183,1.591 0.615,2.857 0.795,1.268 7.709,1.268 7.709,1.268 h 2.54 c 0,0 6.917,0 7.713,-1.268 0.795,-1.266 0.613,-2.857 0.613,-2.857 0,0 0.544,-0.977 0.684,-1.485 0.15,-0.506 0.043,-5.755 0.043,-5.755 0,0 -0.686,-0.723 -0.686,-1.053 0,-0.325 0.46,-27.367 0.46,-27.367 0,0 1,-14.528 2.343,-20.118 1.349,-5.595 11.028,-32.769 13.317,-42.844 1.556,-6.875 2.332,-9.35 2.404,-20.892 0.072,-11.547 0.215,-69.053 0.215,-69.053 0,0 0.077,-3.906 -2.055,-5.238 C 21.411,-0.14 10.012,0.003 1.938,0.003 Z"
           style="fill:none;stroke:#838906;stroke-width:0.977;stroke-miterlimit:10" /></g><g
         id="g81"
         transform="translate(183.89,738.82)"><path
           inkscape:connector-curvature="0"
           id="path79"
           d="m 0,0 c -6.455,0 -15.58,0.11 -20.281,-2.835 -1.701,-1.068 -1.646,-4.192 -1.646,-4.192 0,0 0.113,-46.004 0.174,-55.241 0.054,-9.232 0.679,-11.216 1.929,-16.71 1.823,-8.062 9.57,-29.799 10.646,-34.277 1.076,-4.478 1.874,-16.099 1.874,-16.099 0,0 0.374,-21.632 0.374,-21.892 0,-0.264 -0.549,-0.842 -0.549,-0.842 0,0 -0.089,-4.197 0.03,-4.601 0.115,-0.408 0.551,-1.192 0.551,-1.192 0,0 -0.146,-1.269 0.489,-2.283 0.638,-1.014 6.17,-1.014 6.17,-1.014 h 2.032 c 0,0 5.529,0 6.171,1.014 0.632,1.014 0.488,2.283 0.488,2.283 0,0 0.437,0.784 0.552,1.192 0.113,0.404 0.027,4.601 0.027,4.601 0,0 -0.549,0.578 -0.549,0.842 0,0.26 0.376,21.892 0.376,21.892 0,0 0.794,11.621 1.87,16.099 1.08,4.478 8.824,26.215 10.655,34.277 1.241,5.494 1.867,7.478 1.923,16.71 0.057,9.237 0.168,55.241 0.168,55.241 0,0 0.061,3.124 -1.64,4.192 -4.703,2.94 -13.824,2.83 -20.285,2.83 z"
           style="fill:#49690f" /></g><g
         id="g85"
         transform="translate(183.89,738.82)"><path
           inkscape:connector-curvature="0"
           id="path83"
           d="m 0,0 c -6.455,0 -15.58,0.11 -20.281,-2.835 -1.701,-1.068 -1.646,-4.192 -1.646,-4.192 0,0 0.113,-46.004 0.174,-55.241 0.054,-9.232 0.679,-11.216 1.929,-16.71 1.823,-8.062 9.57,-29.799 10.646,-34.277 1.076,-4.478 1.874,-16.099 1.874,-16.099 0,0 0.374,-21.632 0.374,-21.892 0,-0.264 -0.549,-0.842 -0.549,-0.842 0,0 -0.089,-4.197 0.03,-4.601 0.115,-0.408 0.551,-1.192 0.551,-1.192 0,0 -0.146,-1.269 0.489,-2.283 0.638,-1.014 6.17,-1.014 6.17,-1.014 h 2.032 c 0,0 5.529,0 6.171,1.014 0.632,1.014 0.488,2.283 0.488,2.283 0,0 0.437,0.784 0.552,1.192 0.113,0.404 0.027,4.601 0.027,4.601 0,0 -0.549,0.578 -0.549,0.842 0,0.26 0.376,21.892 0.376,21.892 0,0 0.794,11.621 1.87,16.099 1.08,4.478 8.824,26.215 10.655,34.277 1.241,5.494 1.867,7.478 1.923,16.71 0.057,9.237 0.168,55.241 0.168,55.241 0,0 0.061,3.124 -1.64,4.192 -4.703,2.94 -13.824,2.83 -20.285,2.83 z"
           style="fill:none;stroke:#838906;stroke-width:0.977;stroke-miterlimit:10" /></g><g
         id="g89"
         transform="translate(283.35,737.55)"><path
           inkscape:connector-curvature="0"
           id="path87"
           d="m 0,0 c -6.459,0 -15.582,0.112 -20.284,-2.833 -1.704,-1.068 -1.644,-4.193 -1.644,-4.193 0,0 0.113,-46.004 0.169,-55.24 0.058,-9.232 0.684,-11.217 1.926,-16.712 1.83,-8.059 9.575,-29.8 10.652,-34.274 1.077,-4.479 1.871,-16.099 1.871,-16.099 0,0 0.376,-21.634 0.376,-21.894 0,-0.262 -0.548,-0.84 -0.548,-0.84 0,0 -0.09,-4.197 0.03,-4.605 0.112,-0.405 0.552,-1.191 0.552,-1.191 0,0 -0.147,-1.268 0.492,-2.282 0.635,-1.014 6.166,-1.014 6.166,-1.014 h 2.031 c 0,0 5.531,0 6.17,1.014 0.636,1.014 0.49,2.282 0.49,2.282 0,0 0.437,0.786 0.554,1.191 0.116,0.408 0.026,4.605 0.026,4.605 0,0 -0.549,0.578 -0.549,0.84 0,0.26 0.374,21.894 0.374,21.894 0,0 0.792,11.62 1.873,16.099 1.078,4.474 8.823,26.215 10.65,34.274 1.249,5.495 1.866,7.48 1.926,16.712 0.057,9.236 0.17,55.24 0.17,55.24 0,0 0.061,3.125 -1.641,4.193 -4.703,2.932 -13.824,2.82 -20.281,2.82 z"
           style="fill:#49690f" /></g><g
         id="g93"
         transform="translate(283.35,737.55)"><path
           inkscape:connector-curvature="0"
           id="path91"
           d="m 0,0 c -6.459,0 -15.582,0.112 -20.284,-2.833 -1.704,-1.068 -1.644,-4.193 -1.644,-4.193 0,0 0.113,-46.004 0.169,-55.24 0.058,-9.232 0.684,-11.217 1.926,-16.712 1.83,-8.059 9.575,-29.8 10.652,-34.274 1.077,-4.479 1.871,-16.099 1.871,-16.099 0,0 0.376,-21.634 0.376,-21.894 0,-0.262 -0.548,-0.84 -0.548,-0.84 0,0 -0.09,-4.197 0.03,-4.605 0.112,-0.405 0.552,-1.191 0.552,-1.191 0,0 -0.147,-1.268 0.492,-2.282 0.635,-1.014 6.166,-1.014 6.166,-1.014 h 2.031 c 0,0 5.531,0 6.17,1.014 0.636,1.014 0.49,2.282 0.49,2.282 0,0 0.437,0.786 0.554,1.191 0.116,0.408 0.026,4.605 0.026,4.605 0,0 -0.549,0.578 -0.549,0.84 0,0.26 0.374,21.894 0.374,21.894 0,0 0.792,11.62 1.873,16.099 1.078,4.474 8.823,26.215 10.65,34.274 1.249,5.495 1.866,7.48 1.926,16.712 0.057,9.236 0.17,55.24 0.17,55.24 0,0 0.061,3.125 -1.641,4.193 -4.703,2.932 -13.824,2.82 -20.281,2.82 z"
           style="fill:none;stroke:#838906;stroke-width:0.977;stroke-miterlimit:10" /></g><g
         id="g97"
         transform="translate(135.72,575.46)"><path
           inkscape:connector-curvature="0"
           id="path95"
           d="m 0,0 c -8.073,0 -19.473,-0.143 -25.349,3.543 -2.134,1.332 -2.058,5.238 -2.058,5.238 0,0 0.144,57.506 0.215,69.053 0.074,11.542 0.851,14.017 2.409,20.892 2.282,10.075 11.966,37.249 13.313,42.844 1.35,5.59 2.336,20.118 2.336,20.118 0,0 0.474,27.042 0.474,27.367 0,0.33 -0.69,1.053 -0.69,1.053 0,0 -0.111,5.249 0.038,5.755 0.145,0.508 0.689,1.485 0.689,1.485 0,0 -0.183,1.591 0.611,2.857 0.798,1.268 7.714,1.268 7.714,1.268 h 2.539 c 0,0 6.914,0 7.712,-1.268 0.796,-1.266 0.613,-2.857 0.613,-2.857 0,0 0.547,-0.977 0.686,-1.485 0.145,-0.506 0.039,-5.755 0.039,-5.755 0,0 -0.687,-0.723 -0.687,-1.053 0,-0.325 0.472,-27.367 0.472,-27.367 0,0 0.993,-14.528 2.335,-20.118 1.348,-5.595 11.029,-32.769 13.315,-42.844 1.56,-6.875 2.338,-9.35 2.407,-20.892 0.072,-11.547 0.214,-69.053 0.214,-69.053 0,0 0.077,-3.906 -2.057,-5.238 C 21.416,-0.14 10.015,0.003 1.937,0.003 Z"
           style="fill:#49690f" /></g><g
         id="g101"
         transform="translate(135.72,575.46)"><path
           inkscape:connector-curvature="0"
           id="path99"
           d="m 0,0 c -8.073,0 -19.473,-0.143 -25.349,3.543 -2.134,1.332 -2.058,5.238 -2.058,5.238 0,0 0.144,57.506 0.215,69.053 0.074,11.542 0.851,14.017 2.409,20.892 2.282,10.075 11.966,37.249 13.313,42.844 1.35,5.59 2.336,20.118 2.336,20.118 0,0 0.474,27.042 0.474,27.367 0,0.33 -0.69,1.053 -0.69,1.053 0,0 -0.111,5.249 0.038,5.755 0.145,0.508 0.689,1.485 0.689,1.485 0,0 -0.183,1.591 0.611,2.857 0.798,1.268 7.714,1.268 7.714,1.268 h 2.539 c 0,0 6.914,0 7.712,-1.268 0.796,-1.266 0.613,-2.857 0.613,-2.857 0,0 0.547,-0.977 0.686,-1.485 0.145,-0.506 0.039,-5.755 0.039,-5.755 0,0 -0.687,-0.723 -0.687,-1.053 0,-0.325 0.472,-27.367 0.472,-27.367 0,0 0.993,-14.528 2.335,-20.118 1.348,-5.595 11.029,-32.769 13.315,-42.844 1.56,-6.875 2.338,-9.35 2.407,-20.892 0.072,-11.547 0.214,-69.053 0.214,-69.053 0,0 0.077,-3.906 -2.057,-5.238 C 21.416,-0.14 10.015,0.003 1.937,0.003 Z"
           style="fill:none;stroke:#838906;stroke-width:0.977;stroke-miterlimit:10" /></g><g
         id="g105"
         transform="translate(233.65,575.46)"><path
           inkscape:connector-curvature="0"
           id="path103"
           d="m 0,0 c -8.072,0 -19.478,-0.143 -25.355,3.543 -2.131,1.332 -2.055,5.238 -2.055,5.238 0,0 0.141,57.506 0.213,69.053 0.069,11.542 0.846,14.017 2.407,20.892 2.285,10.075 11.972,37.249 13.315,42.844 1.345,5.59 2.34,20.118 2.34,20.118 0,0 0.468,27.042 0.468,27.367 0,0.33 -0.687,1.053 -0.687,1.053 0,0 -0.108,5.249 0.039,5.755 0.143,0.508 0.688,1.485 0.688,1.485 0,0 -0.184,1.591 0.615,2.857 0.795,1.268 7.709,1.268 7.709,1.268 h 2.54 c 0,0 6.913,0 7.711,-1.268 0.794,-1.266 0.614,-2.857 0.614,-2.857 0,0 0.545,-0.977 0.689,-1.485 0.146,-0.506 0.035,-5.755 0.035,-5.755 0,0 -0.692,-0.723 -0.692,-1.053 0,-0.325 0.474,-27.367 0.474,-27.367 0,0 0.996,-14.528 2.338,-20.118 1.348,-5.595 11.032,-32.769 13.318,-42.844 1.552,-6.875 2.334,-9.35 2.404,-20.892 0.071,-11.547 0.214,-69.053 0.214,-69.053 0,0 0.076,-3.906 -2.055,-5.238 C 21.41,-0.14 10.01,0.003 1.938,0.003 Z"
           style="fill:#49690f" /></g><g
         id="g109"
         transform="translate(233.65,575.46)"><path
           inkscape:connector-curvature="0"
           id="path107"
           d="m 0,0 c -8.072,0 -19.478,-0.143 -25.355,3.543 -2.131,1.332 -2.055,5.238 -2.055,5.238 0,0 0.141,57.506 0.213,69.053 0.069,11.542 0.846,14.017 2.407,20.892 2.285,10.075 11.972,37.249 13.315,42.844 1.345,5.59 2.34,20.118 2.34,20.118 0,0 0.468,27.042 0.468,27.367 0,0.33 -0.687,1.053 -0.687,1.053 0,0 -0.108,5.249 0.039,5.755 0.143,0.508 0.688,1.485 0.688,1.485 0,0 -0.184,1.591 0.615,2.857 0.795,1.268 7.709,1.268 7.709,1.268 h 2.54 c 0,0 6.913,0 7.711,-1.268 0.794,-1.266 0.614,-2.857 0.614,-2.857 0,0 0.545,-0.977 0.689,-1.485 0.146,-0.506 0.035,-5.755 0.035,-5.755 0,0 -0.692,-0.723 -0.692,-1.053 0,-0.325 0.474,-27.367 0.474,-27.367 0,0 0.996,-14.528 2.338,-20.118 1.348,-5.595 11.032,-32.769 13.318,-42.844 1.552,-6.875 2.334,-9.35 2.404,-20.892 0.071,-11.547 0.214,-69.053 0.214,-69.053 0,0 0.076,-3.906 -2.055,-5.238 C 21.41,-0.14 10.01,0.003 1.938,0.003 Z"
           style="fill:none;stroke:#838906;stroke-width:0.977;stroke-miterlimit:10" /></g><g
         id="g113"
         transform="translate(84.404,738.82)"><path
           inkscape:connector-curvature="0"
           id="path111"
           d="m 0,0 c -6.46,0 -15.586,0.114 -20.285,-2.83 -1.702,-1.068 -1.646,-4.197 -1.646,-4.197 0,0 0.115,-46.003 0.176,-55.237 0.052,-9.236 0.675,-11.219 1.926,-16.713 1.825,-8.06 9.57,-29.799 10.651,-34.275 1.075,-4.477 1.868,-16.102 1.868,-16.102 0,0 0.376,-21.632 0.376,-21.892 0,-0.264 -0.55,-0.842 -0.55,-0.842 0,0 -0.084,-4.197 0.031,-4.6 0.117,-0.408 0.551,-1.191 0.551,-1.191 0,0 -0.144,-1.271 0.489,-2.285 0.64,-1.011 6.171,-1.011 6.171,-1.011 h 2.031 c 0,0 5.529,0 6.17,1.011 0.635,1.014 0.49,2.285 0.49,2.285 0,0 0.44,0.783 0.549,1.191 0.119,0.403 0.03,4.6 0.03,4.6 0,0 -0.549,0.578 -0.549,0.842 0,0.26 0.374,21.892 0.374,21.892 0,0 0.793,11.625 1.87,16.102 1.082,4.476 8.827,26.215 10.654,34.275 1.244,5.494 1.87,7.477 1.927,16.713 0.058,9.234 0.172,55.237 0.172,55.237 0,0 0.061,3.129 -1.645,4.197 -4.703,2.934 -13.824,2.82 -20.282,2.82 z"
           style="fill:#49690f" /></g><g
         id="g117"
         transform="translate(84.404,738.82)"><path
           inkscape:connector-curvature="0"
           id="path115"
           d="m 0,0 c -6.46,0 -15.586,0.114 -20.285,-2.83 -1.702,-1.068 -1.646,-4.197 -1.646,-4.197 0,0 0.115,-46.003 0.176,-55.237 0.052,-9.236 0.675,-11.219 1.926,-16.713 1.825,-8.06 9.57,-29.799 10.651,-34.275 1.075,-4.477 1.868,-16.102 1.868,-16.102 0,0 0.376,-21.632 0.376,-21.892 0,-0.264 -0.55,-0.842 -0.55,-0.842 0,0 -0.084,-4.197 0.031,-4.6 0.117,-0.408 0.551,-1.191 0.551,-1.191 0,0 -0.144,-1.271 0.489,-2.285 0.64,-1.011 6.171,-1.011 6.171,-1.011 h 2.031 c 0,0 5.529,0 6.17,1.011 0.635,1.014 0.49,2.285 0.49,2.285 0,0 0.44,0.783 0.549,1.191 0.119,0.403 0.03,4.6 0.03,4.6 0,0 -0.549,0.578 -0.549,0.842 0,0.26 0.374,21.892 0.374,21.892 0,0 0.793,11.625 1.87,16.102 1.082,4.476 8.827,26.215 10.654,34.275 1.244,5.494 1.87,7.477 1.927,16.713 0.058,9.234 0.172,55.237 0.172,55.237 0,0 0.061,3.129 -1.645,4.197 -4.703,2.934 -13.824,2.82 -20.282,2.82 z"
           style="fill:none;stroke:#838906;stroke-width:0.977;stroke-miterlimit:10" /></g><g
         id="g121"
         transform="translate(38.113,575.45)"><path
           inkscape:connector-curvature="0"
           id="path119"
           d="m 0,0 c -8.072,0 -19.473,-0.138 -25.354,3.545 -2.129,1.333 -2.051,5.239 -2.051,5.239 0,0 0.141,57.505 0.212,69.045 0.07,11.547 0.852,14.024 2.409,20.896 2.284,10.077 11.97,37.251 13.313,42.846 1.346,5.594 2.337,20.121 2.337,20.121 0,0 0.474,27.042 0.474,27.365 0,0.328 -0.69,1.051 -0.69,1.051 0,0 -0.107,5.249 0.038,5.758 0.146,0.506 0.689,1.483 0.689,1.483 0,0 -0.182,1.595 0.611,2.861 0.799,1.268 7.719,1.268 7.719,1.268 h 2.534 c 0,0 6.914,0 7.711,-1.268 0.797,-1.266 0.619,-2.861 0.619,-2.861 0,0 0.54,-0.977 0.681,-1.483 0.145,-0.509 0.039,-5.758 0.039,-5.758 0,0 -0.687,-0.723 -0.687,-1.051 0,-0.323 0.471,-27.365 0.471,-27.365 0,0 0.992,-14.527 2.337,-20.121 1.348,-5.595 11.028,-32.769 13.317,-42.846 1.558,-6.872 2.335,-9.349 2.406,-20.896 0.069,-11.54 0.213,-69.045 0.213,-69.045 0,0 0.076,-3.906 -2.058,-5.239 C 21.42,-0.133 10.014,0.005 1.938,0.005 Z"
           style="fill:#49690f" /></g><g
         id="g125"
         transform="translate(38.113,575.45)"><path
           inkscape:connector-curvature="0"
           id="path123"
           d="m 0,0 c -8.072,0 -19.473,-0.138 -25.354,3.545 -2.129,1.333 -2.051,5.239 -2.051,5.239 0,0 0.141,57.505 0.212,69.045 0.07,11.547 0.852,14.024 2.409,20.896 2.284,10.077 11.97,37.251 13.313,42.846 1.346,5.594 2.337,20.121 2.337,20.121 0,0 0.474,27.042 0.474,27.365 0,0.328 -0.69,1.051 -0.69,1.051 0,0 -0.107,5.249 0.038,5.758 0.146,0.506 0.689,1.483 0.689,1.483 0,0 -0.182,1.595 0.611,2.861 0.799,1.268 7.719,1.268 7.719,1.268 h 2.534 c 0,0 6.914,0 7.711,-1.268 0.797,-1.266 0.619,-2.861 0.619,-2.861 0,0 0.54,-0.977 0.681,-1.483 0.145,-0.509 0.039,-5.758 0.039,-5.758 0,0 -0.687,-0.723 -0.687,-1.051 0,-0.323 0.471,-27.365 0.471,-27.365 0,0 0.992,-14.527 2.337,-20.121 1.348,-5.595 11.028,-32.769 13.317,-42.846 1.558,-6.872 2.335,-9.349 2.406,-20.896 0.069,-11.54 0.213,-69.045 0.213,-69.045 0,0 0.076,-3.906 -2.058,-5.239 C 21.42,-0.133 10.014,0.005 1.938,0.005 Z"
           style="fill:none;stroke:#838906;stroke-width:0.977;stroke-miterlimit:10" /></g></g></g><g
     id="g139"
     clip-path="url(#clipPath136)"
     transform="matrix(1.3333,0,0,-1.3333,0,803.96)"><g
       id="g137"
       clip-path="url(#clipPath144)"><g
         id="g135"
         clip-path="url(#clipPath152)"><g
           id="g133"
           clip-path="url(#clipPath160)"><g
             id="g131"
             clip-path="url(#clipPath168)" /></g></g></g></g><g
     id="g149"
     clip-path="url(#clipPath182)"
     transform="matrix(1.3333,0,0,-1.3333,0,803.96)"><g
       id="g147"
       clip-path="url(#clipPath190)"><g
         id="g145"
         clip-path="url(#clipPath198)"><g
           id="g143"
           clip-path="url(#clipPath206)"><g
             id="g141"
             clip-path="url(#clipPath214)" /></g></g></g></g><path
     style="opacity:1;fill:#ffffff;fill-opacity:1;stroke:none;stroke-width:0.5;stroke-linejoin:round;stroke-miterlimit:4;stroke-dasharray:none;stroke-opacity:1"
     id="path5306"
     sodipodi:type="arc"
     sodipodi:cx="398.05872"
     sodipodi:cy="406.50189"
     sodipodi:rx="395.65152"
     sodipodi:ry="404.68466"
     sodipodi:start="6.2214356"
     sodipodi:end="6.2114523"
     d="M 792.95616,381.52861 A 395.65152,404.68466 0 0 1 423.46008,810.35168 395.65152,404.68466 0 0 1 3.2880658,433.49105 395.65152,404.68466 0 0 1 370.6868,2.7868289 395.65152,404.68466 0 0 1 792.69273,377.49753 l -394.63401,29.00436 z" /><g
     id="g481"
     clip-path="url(#clipPath228)"
     transform="matrix(1.3333,0,0,-1.3333,0,803.96)"><g
       id="g153"
       transform="translate(608.7,301.97)"><path
         inkscape:connector-curvature="0"
         id="path151"
         style="fill:#8faf6e"
         d="m 0,0 c 0,-158.5 -138,-287 -308.24,-287 -170.23,0 -308.24,128.5 -308.24,287 0,158.51 138,287 308.24,287 C -138,287 0,158.51 0,0" /></g><g
       id="g157"
       transform="translate(170.71,143.19)"><path
         inkscape:connector-curvature="0"
         id="path155"
         style="fill:#e5c84c"
         d="m 0,0 c -0.414,0 -0.824,0 -1.23,0.002 h -4.848 c -10.858,0.019 -25.703,-0.015 -33.653,4.961 -3.401,2.129 -3.391,7.571 -3.38,8.184 0,0 0.194,77.268 0.287,92.781 0.088,14.49 0.999,18.461 2.817,26.373 l 0.453,1.991 c 1.83,8.067 7.213,24.384 11.536,37.494 3.025,9.167 5.636,17.083 6.364,20.107 1.761,7.327 3.094,26.63 3.107,26.828 0.207,11.887 0.593,34.136 0.629,36.493 -0.11,0.177 -0.354,0.482 -0.565,0.708 l -0.347,0.369 -0.013,0.504 c -0.095,4.813 -0.063,7.541 0.097,8.115 0.174,0.597 0.6,1.444 0.859,1.932 -0.029,0.837 0.045,2.654 1.046,4.249 1.204,1.916 6.905,2.32 11.479,2.32 h 3.41 c 4.571,0 10.272,-0.404 11.475,-2.317 1.008,-1.596 1.081,-3.417 1.051,-4.254 0.258,-0.488 0.681,-1.335 0.849,-1.926 0.166,-0.567 0.201,-3.304 0.102,-8.119 l -0.009,-0.502 -0.347,-0.369 c -0.212,-0.226 -0.453,-0.533 -0.565,-0.708 0.036,-2.338 0.421,-24.605 0.63,-36.564 0.01,-0.129 1.341,-19.432 3.107,-26.759 0.517,-2.166 2.051,-6.959 3.333,-10.89 l -2.498,-0.815 c -1.948,5.993 -2.961,9.309 -3.388,11.091 -1.815,7.54 -3.121,26.459 -3.175,27.261 -0.028,1.551 -0.635,36.426 -0.635,36.869 0,0.211 0,0.817 0.933,1.926 0.057,3.071 0.064,6.388 -0.027,6.923 -0.09,0.307 -0.521,1.165 -0.791,1.653 l -0.205,0.369 0.049,0.418 c 0,0.013 0.169,1.721 -0.634,2.994 -0.632,0.55 -4.982,1.091 -9.255,1.094 h -3.41 c -4.277,-0.003 -8.626,-0.544 -9.309,-1.159 -0.745,-1.206 -0.579,-2.918 -0.576,-2.937 l 0.041,-0.412 -0.199,-0.367 c -0.276,-0.492 -0.71,-1.353 -0.817,-1.723 -0.069,-0.457 -0.061,-3.773 -0.004,-6.851 0.935,-1.109 0.935,-1.717 0.935,-1.928 0,-0.443 -0.606,-35.318 -0.633,-36.804 -0.057,-0.867 -1.364,-19.786 -3.177,-27.328 -0.754,-3.126 -3.381,-11.09 -6.423,-20.311 -4.307,-13.06 -9.667,-29.308 -11.468,-37.254 l -0.457,-2 c -1.775,-7.724 -2.664,-11.6 -2.75,-25.799 -0.093,-15.514 -0.287,-92.794 -0.287,-92.796 -0.021,-1.276 0.324,-4.787 2.147,-5.929 7.311,-4.576 21.689,-4.537 32.261,-4.561 h 4.849 c 9.13,-0.006 20.451,0.005 28.275,2.73 L 27.911,2.878 C 20.026,0.132 9.083,0.017 0,0.017" /></g><g
       id="g161"
       transform="translate(235.23,191.05)"><path
         inkscape:connector-curvature="0"
         id="path159"
         style="fill:#e2ad45"
         d="m 0,0 h -3.414 c -4.573,0 -10.274,0.403 -11.477,2.325 -1.001,1.592 -1.074,3.406 -1.046,4.241 -0.259,0.491 -0.686,1.339 -0.854,1.932 -0.167,0.576 -0.201,3.308 -0.103,8.121 l 0.01,0.507 0.351,0.371 c 0.214,0.222 0.455,0.525 0.564,0.701 -0.035,2.334 -0.423,24.607 -0.632,36.565 -0.01,0.127 -1.338,19.43 -3.107,26.76 -0.728,3.027 -3.345,10.965 -6.378,20.157 -4.316,13.092 -9.689,29.385 -11.515,37.447 l -0.451,1.979 c -1.817,7.913 -2.727,11.882 -2.822,26.375 -0.092,15.519 -0.285,92.802 -0.285,92.802 -0.012,0.593 -0.021,6.04 3.38,8.162 7.938,4.98 22.715,4.998 33.593,4.961 h 4.952 c 10.809,0.006 25.663,0.017 33.597,-4.963 l -1.394,-2.22 c -7.295,4.575 -21.675,4.597 -32.201,4.558 h -4.956 c -10.487,0.03 -24.898,0.017 -32.199,-4.56 -1.825,-1.141 -2.17,-4.738 -2.147,-5.907 0,-0.024 0.193,-77.302 0.285,-92.816 0.091,-14.206 0.982,-18.082 2.755,-25.803 l 0.455,-1.987 c 1.796,-7.938 7.146,-24.167 11.447,-37.205 3.05,-9.247 5.683,-17.233 6.436,-20.367 1.821,-7.54 3.123,-26.461 3.178,-27.261 0.029,-1.55 0.638,-36.422 0.638,-36.869 0,-0.216 0,-0.824 -0.939,-1.93 -0.058,-3.072 -0.062,-6.388 0.026,-6.924 0.091,-0.305 0.524,-1.163 0.796,-1.653 l 0.207,-0.39 -0.049,-0.418 c 0,-0.013 -0.168,-1.721 0.632,-2.992 0.629,-0.552 4.979,-1.095 9.253,-1.095 H 0 c 4.272,0.002 8.62,0.543 9.303,1.162 0.748,1.206 0.582,2.915 0.582,2.933 l -0.043,0.41 0.201,0.369 c 0.27,0.488 0.701,1.344 0.802,1.709 0.078,0.485 0.072,3.798 0.016,6.87 -0.933,1.106 -0.933,1.714 -0.933,1.928 0,0.447 0.605,35.319 0.632,36.802 0.057,0.867 1.366,19.788 3.178,27.328 0.751,3.126 3.376,11.085 6.415,20.299 1.194,3.622 2.453,7.444 3.692,11.251 l 2.498,-0.813 c -1.241,-3.82 -2.502,-7.64 -3.697,-11.27 C 19.624,92.426 17.016,84.516 16.29,81.495 14.53,74.167 13.193,54.862 13.181,54.666 12.976,42.772 12.592,20.506 12.556,18.168 c 0.108,-0.174 0.35,-0.479 0.561,-0.703 l 0.347,-0.369 0.012,-0.505 C 13.574,11.778 13.54,9.044 13.371,8.464 13.207,7.877 12.783,7.029 12.524,6.538 12.551,5.703 12.476,3.889 11.473,2.293 10.272,0.375 4.571,-0.028 0,-0.028" /></g><g
       id="g165"
       transform="translate(366.85,191.05)"><path
         inkscape:connector-curvature="0"
         id="path163"
         style="fill:#e2ad45"
         d="m 0,0 h -3.414 c -4.573,0 -10.274,0.403 -11.475,2.325 -1.003,1.59 -1.076,3.406 -1.048,4.241 -0.26,0.491 -0.688,1.339 -0.855,1.932 -0.166,0.576 -0.198,3.311 -0.103,8.121 l 0.011,0.505 0.349,0.369 c 0.211,0.224 0.455,0.529 0.561,0.703 -0.036,2.322 -0.418,24.604 -0.623,36.567 -0.01,0.127 -1.347,19.43 -3.113,26.76 -0.729,3.038 -3.357,11.004 -6.398,20.233 -4.311,13.065 -9.674,29.326 -11.496,37.371 l -0.455,1.983 c -1.816,7.911 -2.727,11.88 -2.813,26.373 -0.099,15.338 -0.285,92.03 -0.287,92.8 -0.014,0.593 -0.019,6.04 3.382,8.162 l 1.388,-2.224 c -1.823,-1.141 -2.168,-4.738 -2.145,-5.907 0.002,-0.795 0.188,-77.48 0.287,-92.816 0.084,-14.202 0.975,-18.078 2.748,-25.799 l 0.453,-1.991 c 1.797,-7.925 7.137,-24.117 11.428,-37.13 3.063,-9.283 5.707,-17.3 6.46,-20.442 1.818,-7.54 3.129,-26.461 3.184,-27.261 0.029,-1.55 0.627,-36.422 0.627,-36.869 0,-0.214 0,-0.822 -0.932,-1.928 -0.056,-3.074 -0.062,-6.392 0.028,-6.928 0.091,-0.303 0.522,-1.161 0.796,-1.651 l 0.207,-0.369 -0.049,-0.42 c -0.002,-0.011 -0.173,-1.717 0.63,-2.99 0.633,-0.552 4.98,-1.095 9.253,-1.095 H 0 c 4.272,0.002 8.62,0.543 9.303,1.162 0.746,1.206 0.582,2.917 0.58,2.933 l -0.041,0.413 0.199,0.366 c 0.274,0.492 0.707,1.35 0.812,1.717 0.072,0.473 0.064,3.786 0.006,6.86 -0.939,1.106 -0.939,1.714 -0.939,1.93 0,0.447 0.611,35.319 0.636,36.802 0.059,0.867 1.37,19.788 3.178,27.328 0.755,3.132 3.388,11.111 6.436,20.35 4.303,13.045 9.659,29.282 11.46,37.222 l 0.467,2.049 c 1.761,7.706 2.645,11.574 2.729,25.741 0.099,15.336 0.285,92.021 0.287,92.794 0.021,1.277 -0.325,4.79 -2.142,5.929 l 1.394,2.224 c 3.392,-2.122 3.388,-7.569 3.373,-8.184 -0.002,-0.748 -0.188,-77.44 -0.287,-92.778 -0.086,-14.458 -0.99,-18.418 -2.795,-26.313 l -0.468,-2.043 c -1.827,-8.07 -7.206,-24.37 -11.525,-37.46 C 19.633,92.477 17.016,84.545 16.287,81.52 14.53,74.192 13.19,54.887 13.179,54.691 12.972,42.802 12.584,20.539 12.549,18.195 c 0.115,-0.184 0.373,-0.504 0.562,-0.701 l 0.353,-0.369 0.01,-0.509 c 0.1,-4.81 0.068,-7.545 -0.099,-8.121 C 13.207,7.9 12.78,7.052 12.521,6.563 12.549,5.728 12.471,3.914 11.475,2.322 10.269,0.4 4.567,-0.003 0,-0.003" /></g><g
       id="g169"
       transform="translate(466.36,148.15)"><path
         inkscape:connector-curvature="0"
         id="path167"
         style="fill:#e5c84c"
         d="m 0,0 -1.395,2.226 c 1.826,1.143 2.172,4.739 2.15,5.908 0,0.022 -0.194,77.303 -0.289,92.816 -0.088,14.194 -0.976,18.068 -2.742,25.789 l -0.457,2.01 c -1.805,7.946 -7.165,24.199 -11.476,37.256 -3.04,9.221 -5.665,17.183 -6.422,20.309 -1.814,7.542 -3.119,26.461 -3.176,27.263 -0.027,1.551 -0.631,36.426 -0.631,36.869 0,0.211 0,0.819 0.936,1.928 0.058,3.074 0.062,6.39 -0.026,6.925 -0.088,0.304 -0.521,1.161 -0.794,1.653 l -0.202,0.369 0.046,0.416 c 0.002,0.013 0.172,1.719 -0.629,2.994 -0.632,0.548 -4.98,1.092 -9.253,1.092 h -3.415 c -4.276,-0.003 -8.625,-0.544 -9.311,-1.161 -0.748,-1.206 -0.578,-2.912 -0.576,-2.931 l 0.043,-0.41 -0.198,-0.369 c -0.276,-0.492 -0.708,-1.355 -0.819,-1.728 -0.067,-0.455 -0.059,-3.774 -0.002,-6.854 0.933,-1.107 0.933,-1.713 0.933,-1.924 0,-0.443 -0.605,-35.318 -0.632,-36.803 -0.059,-0.868 -1.363,-19.787 -3.179,-27.329 -0.752,-3.129 -3.385,-11.105 -6.432,-20.343 -4.305,-13.046 -9.659,-29.282 -11.462,-37.222 l -0.46,-2.013 c -1.766,-7.718 -2.651,-11.594 -2.741,-25.786 -0.095,-15.513 -0.287,-92.796 -0.287,-92.796 -0.021,-1.276 0.324,-4.787 2.146,-5.928 l -1.394,-2.24 c -3.396,2.129 -3.39,7.571 -3.377,8.185 0,0 0.192,77.267 0.287,92.78 0.09,14.482 0.998,18.453 2.809,26.358 l 0.459,2.006 c 1.827,8.062 7.204,24.365 11.528,37.466 3.029,9.179 5.643,17.109 6.372,20.135 1.763,7.327 3.096,26.631 3.109,26.828 0.205,11.89 0.59,34.147 0.627,36.495 -0.11,0.175 -0.353,0.482 -0.565,0.708 l -0.345,0.367 -0.011,0.504 c -0.099,4.812 -0.067,7.541 0.095,8.115 0.174,0.597 0.6,1.447 0.855,1.932 -0.027,0.837 0.045,2.656 1.052,4.252 1.204,1.913 6.905,2.317 11.476,2.317 h 3.415 c 4.565,0 10.261,-0.402 11.471,-2.315 1.005,-1.598 1.079,-3.417 1.051,-4.254 0.258,-0.488 0.683,-1.335 0.849,-1.926 0.168,-0.574 0.201,-3.306 0.102,-8.121 l -0.01,-0.504 -0.349,-0.369 c -0.211,-0.226 -0.455,-0.531 -0.566,-0.708 0.036,-2.342 0.42,-24.605 0.627,-36.562 0.011,-0.128 1.344,-19.432 3.108,-26.759 0.727,-3.022 3.341,-10.938 6.363,-20.103 4.325,-13.11 9.704,-29.429 11.538,-37.498 l 0.459,-2.006 c 1.809,-7.9 2.718,-11.87 2.808,-26.36 C 3.186,85.439 3.38,8.151 3.38,8.151 3.393,7.56 3.398,2.118 0,-0.011" /></g><g
       id="g173"
       transform="translate(498.47,191.05)"><path
         inkscape:connector-curvature="0"
         id="path171"
         style="fill:#eeda69"
         d="m 0,0 h -3.414 c -4.573,0 -10.274,0.403 -11.475,2.321 -1.005,1.592 -1.076,3.41 -1.048,4.247 -0.26,0.491 -0.688,1.344 -0.852,1.943 -0.167,0.555 -0.199,3.291 -0.099,8.11 l 0.01,0.505 0.347,0.367 c 0.209,0.224 0.451,0.527 0.557,0.701 -0.036,2.324 -0.42,24.606 -0.627,36.571 -0.01,0.127 -1.343,19.428 -3.107,26.756 -0.728,3.038 -3.353,11 -6.396,20.22 -4.311,13.071 -9.678,29.337 -11.5,37.384 l -0.448,1.957 c -1.817,7.916 -2.727,11.891 -2.82,26.401 -0.099,15.338 -0.28,92.032 -0.283,92.802 -0.012,0.591 -0.025,6.038 3.372,8.158 7.948,4.98 22.872,4.982 33.614,4.965 h 4.922 c 10.817,0.043 25.672,0.017 33.612,-4.965 3.392,-2.12 3.388,-7.567 3.373,-8.18 -0.002,-0.75 -0.188,-77.442 -0.287,-92.78 -0.092,-14.501 -0.998,-18.473 -2.811,-26.384 l -0.452,-1.974 c -1.713,-7.557 -10.46,-34.217 -10.832,-35.347 l -2.493,0.817 c 0.09,0.276 9.078,27.675 10.767,35.113 l 0.451,1.975 c 1.77,7.725 2.657,11.603 2.745,25.815 0.099,15.334 0.285,92.023 0.287,92.796 0.021,1.277 -0.325,4.79 -2.138,5.927 -7.307,4.577 -21.683,4.592 -32.222,4.562 h -4.922 c -10.61,0.037 -24.917,0.017 -32.222,-4.562 -1.817,-1.137 -2.162,-4.65 -2.139,-5.907 0.003,-0.795 0.184,-77.482 0.283,-92.816 0.089,-14.221 0.978,-18.101 2.752,-25.83 l 0.449,-1.96 c 1.797,-7.927 7.142,-24.128 11.436,-37.144 3.059,-9.278 5.701,-17.288 6.456,-20.43 1.814,-7.538 3.119,-26.457 3.175,-27.259 0.028,-1.55 0.632,-36.422 0.632,-36.871 0,-0.214 0,-0.818 -0.926,-1.922 -0.06,-3.07 -0.064,-6.386 0.024,-6.922 0.091,-0.315 0.521,-1.171 0.794,-1.661 l 0.205,-0.38 -0.047,-0.42 c -0.002,-0.011 -0.173,-1.719 0.63,-2.992 0.633,-0.55 4.98,-1.093 9.253,-1.093 H 0 C 4.272,2.616 8.62,3.157 9.303,3.772 L 11.475,2.31 C 10.274,0.392 4.573,-0.011 0,-0.011" /></g><g
       id="g177"
       transform="matrix(0.98106,0.1937,0.1937,-0.98106,335,461.46)"
       style="fill:#e2ad45"
       aria-label="Q"><path
         inkscape:connector-curvature="0"
         id="path175"
         d="m 4.5989,-4.8142 q -0.55371,-0.71906 -1.4958,-0.71906 -0.94208,0 -1.4996,0.71906 -0.55371,0.71521 -0.55371,1.9534 0,1.2343 0.55371,1.9495 0.55756,0.71906 1.4996,0.71906 0.94208,0 1.4958,-0.71906 0.54987,-0.71521 0.54987,-1.9495 0,-1.2382 -0.54987,-1.9534 z M 4.0106,-0.0423 4.9873,1.0151 H 4.5028 L 3.6299,0.06921 q -0.1615,0.030762 -0.26532,0.038452 -0.13074,0 -0.26148,0.003845 -1.119,0 -1.7919,-0.81135 -0.66907,-0.8075 -0.66907,-2.1649 0,-1.3612 0.66907,-2.1726 0.67292,-0.8075 1.7919,-0.8075 1.1151,0 1.7842,0.8075 0.66907,0.81135 0.66907,2.1726 0,0.97669 -0.36914,1.7111 -0.40375,0.79981 -1.1766,1.1113 z" /></g><g
       id="g181"
       transform="matrix(0.99903,0.044127,0.044127,-0.99903,348.51,463.08)"
       style="fill:#e2ad45"
       aria-label="u"><path
         inkscape:connector-curvature="0"
         id="path179"
         d="M 0.84595,-1.7073 V -4.3067 H 1.1997 v 2.5763 q 0,0.83826 0.26917,1.1805 0.26917,0.34223 0.79212,0.34223 0.61139,0 1.0459,-0.36914 0.43836,-0.37299 0.43836,-1.2958 v -2.434 H 4.09901 V -1e-5 H 3.74525 v -0.8075 q -0.18842,0.39222 -0.49604,0.59986 -0.45374,0.31147 -1.0036,0.31147 -0.63831,0 -1.019,-0.43451 -0.38075,-0.43068 -0.38075,-1.3766 z" /></g><g
       id="g185"
       transform="matrix(0.99998,-0.0063747,-0.0063747,-0.99998,368.41,463.48)"
       style="fill:#e2ad45"
       aria-label="n"><path
         inkscape:connector-curvature="0"
         id="path183"
         d="M 4.1451,-2.5993 V 0 H 3.7913 v -2.5762 q 0,-0.83824 -0.26916,-1.1805 -0.26916,-0.34222 -0.7921,-0.34222 -0.61138,0 -1.0459,0.36913 -0.43835,0.37298 -0.43835,1.2958 V 1e-5 H 0.89216 v -4.3066 h 0.35373 v 0.80748 q 0.18841,-0.3922 0.49602,-0.59984 0.45373,-0.31146 1.0036,-0.31146 0.63829,0 1.019,0.4345 0.38067,0.43066 0.38067,1.3766 z" /></g><g
       id="g189"
       transform="matrix(0.99801,-0.062998,-0.062998,-0.99801,379.96,463.47)"
       style="fill:#e2ad45"
       aria-label="c"><path
         inkscape:connector-curvature="0"
         id="path187"
         d="m 3.8413,-4.0989 v 0.37682 Q 3.52215,-3.91818 3.31452,-3.98739 2.95692,-4.0989 2.63009,-4.0989 q -0.93052,0 -1.3343,0.4768 -0.40374,0.4768 -0.40374,1.4727 0,1.0036 0.40374,1.4804 0.40374,0.4768 1.3343,0.4768 0.30761,0 0.60753,-0.084593 0.30377,-0.080748 0.60369,-0.24609 v 0.3576 q -0.2961,0.13838 -0.6114,0.2076 -0.3191,0.06921 -0.6306,0.06921 -0.9459,0 -1.5034,-0.5114 -0.55755,-0.51525 -0.55755,-1.7495 0,-1.2343 0.55755,-1.7495 0.55754,-0.5114 1.5034,-0.5114 0.30761,0 0.65367,0.088438 0.34606,0.084593 0.58831,0.22302 z" /></g><g
       id="g193"
       transform="matrix(0.97634,-0.21623,-0.21623,-0.97634,391.48,462.36)"
       style="fill:#e2ad45"
       aria-label="y"><path
         inkscape:connector-curvature="0"
         id="path191"
         d="M 2.3456,0.3999 Q 2.1148,0.97283 1.8495,1.192 1.4919,1.4881 1.1497,1.4881 H 0.62292 V 1.1882 H 1.0728 q 0.2807,0 0.49218,-0.18072 0.273,-0.23462 0.4499,-0.68835 L 2.14178,-2e-5 0.42298,-4.30662 h 0.37679 l 1.5304,3.8375 1.5342,-3.8375 h 0.37298 z" /></g><g
       id="g197"
       transform="matrix(-0.002527,-1,-1,0.002527,269.29,448.41)"
       style="fill:#e2ad45"
       aria-label="M"><path
         inkscape:connector-curvature="0"
         id="path195"
         d="m 1.2651,-5.7409 h 0.53448 l 1.5957,4.2566 1.6034,-4.2566 h 0.5307 V 0 h -0.3922 v -5.041 l -1.4766,3.9374 H 3.12998 L 1.65728,-5.041 V 0 h -0.3922 z" /></g><g
       id="g201"
       transform="matrix(-0.0026032,-1,-1,0.0026032,269.19,435.3)"
       style="fill:#e2ad45"
       aria-label="e"><path
         inkscape:connector-curvature="0"
         id="path199"
         d="m 4.2489,-2.3302 v 0.22302 H 0.9805 q 0,1.0382 0.40374,1.4535 0.44604,0.46142 1.3266,0.46142 0.23071,0 0.61138,-0.099975 0.38452,-0.099975 0.76135,-0.29992 v 0.37302 q -0.3806,0.1615 -0.7805,0.2461 -0.3999,0.08459 -0.6344,0.08459 -0.9959,0 -1.4996,-0.53833 -0.54608,-0.57293 -0.54608,-1.6804 0,-1.1497 0.49987,-1.7149 0.51141,-0.58831 1.4227,-0.58831 0.84594,0 1.2766,0.55755 0.42681,0.58447 0.42681,1.5227 z M 3.8913,-2.4071 q 0,-0.90746 -0.40759,-1.3227 -0.34222,-0.36914 -0.93053,-0.36914 -0.64214,0 -1.0767,0.38452 -0.3999,0.3576 -0.48065,1.3074 z" /></g><g
       id="g205"
       transform="matrix(-0.0027048,-1,-1,0.0027048,269.17,424.01)"
       style="fill:#e2ad45"
       aria-label="n"><path
         inkscape:connector-curvature="0"
         id="path203"
         d="M 4.1451,-2.5993 V 0 H 3.7913 v -2.5763 q 0,-0.83825 -0.26916,-1.1805 -0.26916,-0.34222 -0.79211,-0.34222 -0.61138,0 -1.0459,0.36914 -0.43835,0.37298 -0.43835,1.2958 V 2e-5 H 0.89216 v -4.3066 h 0.35376 v 0.80749 q 0.18841,-0.39221 0.49603,-0.59985 0.45373,-0.31146 1.0036,-0.31146 0.6383,0 1.019,0.43451 0.38067,0.43066 0.38067,1.3766 z" /></g><g
       id="g209"
       transform="matrix(-0.0027683,-1,-1,0.0027683,269.08,412.87)"
       style="fill:#e2ad45"
       aria-label="e"><path
         inkscape:connector-curvature="0"
         id="path207"
         d="m 4.2489,-2.3302 v 0.22302 H 0.9805 q 0,1.0382 0.40374,1.4535 0.44604,0.46142 1.3266,0.46142 0.23071,0 0.61138,-0.099975 0.38452,-0.099975 0.76135,-0.29992 v 0.37298 Q 3.7029,-0.057675 3.303,0.026915 2.9031,0.111509 2.66855,0.111509 q -0.9959,0 -1.4996,-0.53833 -0.54602,-0.57293 -0.54602,-1.6803 0,-1.1497 0.49987,-1.715 0.51141,-0.58831 1.4227,-0.58831 0.84594,0 1.2766,0.55755 0.42682,0.58447 0.42682,1.5227 z M 3.8913,-2.4071 q 0,-0.90746 -0.40759,-1.3227 -0.34222,-0.36914 -0.93053,-0.36914 -0.64215,0 -1.0767,0.38452 -0.3999,0.3576 -0.48065,1.3074 z" /></g><g
       id="g213"
       transform="matrix(-0.0028699,-1,-1,0.0028699,269.05,401.79)"
       style="fill:#e2ad45"
       aria-label="t"><path
         inkscape:connector-curvature="0"
         id="path211"
         d="m 1.2651,-5.5294 v 1.2228 h 1.4573 v 0.29992 H 1.2651 v 2.5878 q 0,0.49218 0.12689,0.68829 0.26147,0.43066 0.76135,0.43066 h 0.5691 V -3e-5 h -0.5499 q -0.5268,0 -0.8959,-0.30761 Q 0.9075,-0.61526 0.9075,-1.41894 v -2.5878 H 0.39225 v -0.2999 H 0.9075 v -1.2228 z" /></g><g
       id="g217"
       transform="matrix(-0.003035,-1,-1,0.003035,269.17,392.24)"
       style="fill:#e2ad45"
       aria-label="o"><path
         inkscape:connector-curvature="0"
         id="path215"
         d="m 3.453,-3.5683 q -0.38067,-0.53064 -1.0382,-0.53064 -0.65753,0 -1.0382,0.52679 -0.38452,0.52294 -0.38452,1.415 0,0.91515 0.38067,1.4381 0.38067,0.52679 1.042,0.52679 0.65753,0 1.0382,-0.52679 0.38452,-0.53064 0.38452,-1.4381 0,-0.88055 -0.38452,-1.4112 z M 2.4109,-4.4104 q 0.82287,0 1.2997,0.61523 0.48065,0.61907 0.48065,1.6419 0,1.0574 -0.48065,1.6688 -0.4768,0.61523 -1.2997,0.61523 -0.83056,0 -1.3112,-0.61138 -0.4768,-0.61138 -0.4768,-1.6727 0,-1.0344 0.48065,-1.6457 0.48065,-0.61138 1.3074,-0.61138 z" /></g><g
       id="g221"
       transform="matrix(-0.0032762,-0.99999,-0.99999,0.0032762,269.02,380.8)"
       style="fill:#e2ad45"
       aria-label="u"><path
         inkscape:connector-curvature="0"
         id="path219"
         d="M 0.84594,-1.7073 V -4.3066 H 1.1997 v 2.5763 q 0,0.83825 0.26916,1.1805 0.26916,0.34222 0.79211,0.34222 0.61138,0 1.0459,-0.36914 0.43835,-0.37298 0.43835,-1.2958 v -2.4341 h 0.3537 V -2e-5 H 3.74512 V -0.80751 Q 3.55671,-0.4153 3.24909,-0.20766 2.79536,0.1038 2.24549,0.1038 q -0.6383,0 -1.019,-0.43451 -0.38066,-0.43066 -0.38066,-1.3766 z" /></g><g
       id="g225"
       transform="matrix(-0.0037968,-0.99999,-0.99999,0.0037968,269.11,369.69)"
       style="fill:#e2ad45"
       aria-label="-"><path
         inkscape:connector-curvature="0"
         id="path223"
         d="m 0.38452,-2.3148 h 2.0726 v 0.31531 h -2.0726 z" /></g><g
       id="g229"
       transform="matrix(-0.011467,-0.99993,-0.99993,0.011467,268.96,359.34)"
       style="fill:#e2ad45"
       aria-label="S"><path
         inkscape:connector-curvature="0"
         id="path227"
         d="m 4.1682,-5.4525 v 0.36145 q -0.3769,-0.1884 -0.8344,-0.3345 -0.3,-0.0962 -0.7575,-0.1039 -0.67675,-0.011535 -1.0997,0.29992 -0.38452,0.28454 -0.38452,0.97667 0,0.42681 0.29223,0.67675 0.31146,0.26532 0.93822,0.42681 l 0.45758,0.1192 q 0.61523,0.1615 0.94976,0.38452 0.62676,0.42681 0.62676,1.0728 0,0.93438 -0.54986,1.2958 -0.59985,0.38836 -1.2305,0.38836 -0.65752,0 -1.1766,-0.18072 -0.32684,-0.13074 -0.68444,-0.36145 v -0.37683 q 0.53832,0.31915 0.75365,0.40759 0.48065,0.1961 0.89208,0.1961 0.70367,0 1.1689,-0.31146 0.43835,-0.29223 0.43835,-1.0267 0,-0.43066 -0.26916,-0.67675 -0.3883,-0.3577 -1.0074,-0.5076 L 2.23023,-2.83795 q -0.5537,-0.1346 -0.9421,-0.3769 -0.58828,-0.3691 -0.58828,-1.0074 0,-0.79595 0.48065,-1.2228 0.44604,-0.39605 1.3535,-0.3999 0.53448,0 0.81902,0.092284 0.73058,0.2384 0.81518,0.29992 z" /></g><g
       id="g233"
       transform="matrix(-0.092268,-0.99573,-0.99573,0.092268,268.63,347.18)"
       style="fill:#e2ad45"
       aria-label="a"><path
         inkscape:connector-curvature="0"
         id="path231"
         d="m 2.6147,-2.4301 q -0.85363,0 -1.2305,0.30377 -0.37683,0.30377 -0.37683,0.88823 0,0.56908 0.31146,0.80748 0.31146,0.2384 0.73827,0.2384 0.80748,0 1.1612,-0.68444 0.3576,-0.6845 0.3576,-1.2882 v -0.26532 z m 1.3189,-0.026916 v 2.457 H 3.5837 v -1.1689 q -0.29608,0.85747 -0.78441,1.092 -0.38836,0.18841 -0.77288,0.18841 -0.64214,0 -1.0113,-0.34222 -0.36914,-0.34606 -0.36914,-1.0151 0,-0.66906 0.48065,-1.069 0.48065,-0.40374 1.5727,-0.40374 h 0.8767 v -0.069213 q 0,-0.57293 -0.32684,-0.94206 -0.32299,-0.36914 -1.069,-0.36914 -0.36914,0 -0.75365,0.13843 -0.24609,0.088439 -0.6383,0.3576 v -0.38067 q 0.34222,-0.21148 0.6383,-0.29992 0.43066,-0.12689 0.82671,-0.12689 0.76134,0 1.2535,0.46142 0.42681,0.39605 0.42681,1.4919 z" /></g><g
       id="g237"
       transform="matrix(-0.21143,-0.97739,-0.97739,0.21143,267.11,335.59)"
       style="fill:#e2ad45"
       aria-label="l"><path
         inkscape:connector-curvature="0"
         id="path235"
         d="M 0.89209,-5.9832 H 1.2459 V 0 H 0.89209 Z" /></g><g
       id="g241"
       transform="matrix(-0.26027,-0.96554,-0.96554,0.26027,265.43,327.23)"
       style="fill:#e2ad45"
       aria-label="o"><path
         inkscape:connector-curvature="0"
         id="path239"
         d="M 3.453,-3.5684 Q 3.0723,-4.099 2.4148,-4.099 q -0.65753,0 -1.0382,0.52679 -0.38452,0.52295 -0.38452,1.415 0,0.91516 0.38068,1.4381 0.38068,0.52679 1.0421,0.52679 0.65753,0 1.0382,-0.52679 0.38452,-0.53064 0.38452,-1.4381 0,-0.88055 -0.38452,-1.4112 z M 2.4109,-4.4105 q 0.82288,0 1.2997,0.61523 0.48065,0.61908 0.48065,1.6419 0,1.0574 -0.48065,1.6688 -0.47681,0.61523 -1.2997,0.61523 -0.83057,0 -1.3112,-0.61139 -0.47681,-0.61139 -0.47681,-1.6727 0,-1.0344 0.48065,-1.6458 0.48065,-0.61139 1.3074,-0.61139 z" /></g><g
       id="g245"
       transform="matrix(-0.29625,-0.95511,-0.95511,0.29625,262.06,316.49)"
       style="fill:#e2ad45"
       aria-label="n"><path
         inkscape:connector-curvature="0"
         id="path243"
         d="M 4.1451,-2.5993 V 0 H 3.7913 v -2.5763 q 0,-0.83824 -0.26916,-1.1805 -0.26916,-0.34222 -0.7921,-0.34222 -0.61138,0 -1.0459,0.36914 -0.43835,0.37298 -0.43835,1.2958 V 2e-5 H 0.89217 v -4.3066 h 0.35372 v 0.80748 q 0.18841,-0.39221 0.49603,-0.59984 0.45373,-0.31146 1.0036,-0.31146 0.6383,0 1.019,0.4345 0.38067,0.43066 0.38067,1.3766 z" /></g><g
       id="g249"
       transform="matrix(0.31317,-0.9497,-0.9497,-0.31317,187.34,317.67)"
       style="fill:#e5c84c"
       aria-label="C"><path
         inkscape:connector-curvature="0"
         id="path247"
         d="m 5.0719,-5.2641 v 0.4422 Q 4.6796,-5.1795 4.2374,-5.3526 3.7914,-5.5294 3.2915,-5.5294 q -1.0844,0 -1.6573,0.68445 -0.57678,0.68445 -0.57678,1.9803 0,1.29585 0.57678,1.9841 0.57294,0.6883 1.6573,0.6883 0.49988,0 0.94593,-0.17688 0.4422,-0.18073 0.83441,-0.53833 v 0.46527 q -0.40759,0.27686 -0.86518,0.41528 -0.45374,0.13843 -0.96131,0.13843 -1.2074,0 -1.8995,-0.79596 -0.69214,-0.79981 -0.69214,-2.1802 0,-1.3843 0.69214,-2.1802 0.69214,-0.79981 1.8995,-0.79981 0.51526,0 0.969,0.14612 0.45758,0.14227 0.85749,0.43451 z" /></g><g
       id="g253"
       transform="matrix(0.30977,-0.95081,-0.95081,-0.30977,190.47,307.67)"
       style="fill:#e5c84c"
       aria-label="o"><path
         inkscape:connector-curvature="0"
         id="path251"
         d="m 3.4529,-3.5683 q -0.38067,-0.53063 -1.0382,-0.53063 -0.65752,0 -1.0382,0.52678 -0.38451,0.52294 -0.38451,1.415 0,0.91514 0.38067,1.4381 0.38067,0.52678 1.042,0.52678 0.65752,0 1.0382,-0.52678 0.38451,-0.53063 0.38451,-1.4381 0,-0.88054 -0.38451,-1.4112 z m -1.042,-0.8421 q 0.82286,0 1.2997,0.61522 0.48064,0.61907 0.48064,1.6419 0,1.0574 -0.48064,1.6688 -0.4768,0.61522 -1.2997,0.61522 -0.83055,0 -1.3112,-0.61138 -0.4768,-0.61138 -0.4768,-1.6726 0,-1.0343 0.48064,-1.6457 0.48064,-0.61138 1.3073,-0.61138 z" /></g><g
       id="g257"
       transform="matrix(0.30183,-0.95336,-0.95336,-0.30183,193.41,298.43)"
       style="fill:#e5c84c"
       aria-label="t"><path
         inkscape:connector-curvature="0"
         id="path255"
         d="m 1.2651,-5.5295 v 1.2228 h 1.4573 v 0.3 H 1.2651 v 2.5879 q 0,0.49219 0.12689,0.6883 0.26148,0.43067 0.76136,0.43067 h 0.569 V -3e-5 h -0.5498 q -0.5268,0 -0.896,-0.30762 -0.36912,-0.30762 -0.36912,-1.1113 v -2.5878 H 0.39217 v -0.29993 h 0.51526 v -1.2228 z" /></g><g
       id="g261"
       transform="matrix(0.28496,-0.95854,-0.95854,-0.28496,196.08,290.48)"
       style="fill:#e5c84c"
       aria-label="e"><path
         inkscape:connector-curvature="0"
         id="path259"
         d="m 4.249,-2.3302 v 0.22302 H 0.9805 q 0,1.0382 0.40375,1.4535 0.44605,0.46143 1.3266,0.46143 0.23071,0 0.61139,-0.099976 0.38452,-0.099976 0.76135,-0.29993 v 0.37299 q -0.38068,0.1615 -0.78058,0.24609 -0.3999,0.084595 -0.63446,0.084595 -0.99591,0 -1.4996,-0.53833 -0.54602,-0.57294 -0.54602,-1.6804 0,-1.1497 0.49988,-1.715 0.51141,-0.58832 1.4227,-0.58832 0.84595,0 1.2766,0.55756 0.42682,0.58447 0.42682,1.5227 z M 3.8914,-2.4071 q 0,-0.90747 -0.40759,-1.3228 -0.3423,-0.3691 -0.9306,-0.3691 -0.64215,0 -1.0767,0.38452 -0.3999,0.35761 -0.48065,1.3074 z" /></g><g
       id="g265"
       transform="matrix(0.22977,-0.97325,-0.97325,-0.22977,198.82,280.81)"
       style="fill:#e5c84c"
       aria-label="a"><path
         inkscape:connector-curvature="0"
         id="path263"
         d="m 2.6147,-2.4302 q -0.85364,0 -1.2305,0.30377 -0.37683,0.30377 -0.37683,0.88824 0,0.56909 0.31146,0.80749 0.31146,0.2384 0.73828,0.2384 0.80749,0 1.1613,-0.68445 0.3575,-0.6844 0.3575,-1.2881 v -0.26532 z m 1.3189,-0.026917 v 2.4571 H 3.58369 v -1.1689 q -0.29608,0.85748 -0.78442,1.092 -0.38837,0.18842 -0.77289,0.18842 -0.64215,0 -1.0113,-0.34222 -0.36914,-0.34607 -0.36914,-1.0151 0,-0.66907 0.48065,-1.069 0.48065,-0.40375 1.5727,-0.40375 h 0.8766 v -0.069214 q 0,-0.57294 -0.32684,-0.94208 -0.323,-0.36914 -1.069,-0.36914 -0.36914,0 -0.75366,0.13843 -0.24609,0.08844 -0.6383,0.3576 v -0.38068 q 0.34222,-0.21149 0.6383,-0.29993 0.43066,-0.12689 0.82672,-0.12689 0.76135,0 1.2535,0.46142 0.42682,0.39606 0.42682,1.4919 z" /></g><g
       id="g269"
       transform="matrix(0.1725,-0.98501,-0.98501,-0.1725,200.9,271.22)"
       style="fill:#e5c84c"
       aria-label="u"><path
         inkscape:connector-curvature="0"
         id="path267"
         d="M 0.84594,-1.7073 V -4.3066 H 1.1997 v 2.5763 q 0,0.83825 0.26916,1.1805 0.26916,0.34222 0.79211,0.34222 0.61138,0 1.0459,-0.36914 0.43835,-0.37298 0.43835,-1.2958 v -2.4341 h 0.3537 V -2e-5 H 3.74512 V -0.80751 Q 3.55671,-0.4153 3.24909,-0.20766 2.79536,0.1038 2.24549,0.1038 q -0.6383,0 -1.019,-0.43451 -0.38066,-0.43066 -0.38066,-1.3766 z" /></g><g
       id="g273"
       transform="matrix(0.058033,-0.99831,-0.99831,-0.058033,202.05,261.34)"
       style="fill:#e5c84c"
       aria-label="x"><path
         inkscape:connector-curvature="0"
         id="path271"
         d="M 4.1066,-4.3066 2.5493,-2.2379 4.222,0 H 3.799 L 2.3379,-1.961 0.8613,0 H 0.43835 l 1.6842,-2.2533 -1.5304,-2.0533 h 0.4191 l 1.3266,1.788 1.3458,-1.788 z" /></g><g
       id="g277"
       transform="matrix(0.0042285,-0.99999,-0.99999,-0.0042285,202.59,245.33)"
       style="fill:#e5c84c"
       aria-label="d"><path
         inkscape:connector-curvature="0"
         id="path275"
         d="M 3.753,-3.3223 V -5.9832 H 4.099 V 0 H 3.753 v -0.97669 q -0.24225,0.56141 -0.5268,0.76905 -0.43451,0.31916 -0.81904,0.31916 -0.7652,0 -1.2728,-0.62293 -0.50757,-0.62293 -0.50757,-1.6381 0,-1.0151 0.50757,-1.6381 0.50757,-0.62293 1.2728,-0.62293 0.38452,0 0.81904,0.31916 0.28455,0.20764 0.5268,0.76905 z M 1.4458,-3.6491 q -0.44605,0.44989 -0.44605,1.4996 0,1.0498 0.44605,1.4996 0.4422,0.44989 0.9344,0.44989 0.48066,0 0.92671,-0.44989 0.4422,-0.44989 0.4422,-1.4996 0,-1.0498 -0.4422,-1.4996 -0.44605,-0.44989 -0.92671,-0.44989 -0.49219,0 -0.9344,0.44989 z" /></g><g
       id="g281"
       transform="matrix(0.0035048,-0.99999,-0.99999,-0.0035048,202.61,235.67)"
       style="fill:#e5c84c"
       aria-label="u"><path
         inkscape:connector-curvature="0"
         id="path279"
         d="M 0.84594,-1.7073 V -4.3066 H 1.1997 v 2.5763 q 0,0.83825 0.26916,1.1805 0.26916,0.34222 0.79211,0.34222 0.61139,0 1.0459,-0.36914 0.43835,-0.37298 0.43835,-1.2958 v -2.4341 h 0.3537 V -2e-5 H 3.74512 V -0.80751 Q 3.55671,-0.4153 3.24909,-0.20766 2.79536,0.1038 2.24549,0.1038 q -0.6383,0 -1.019,-0.43451 -0.38066,-0.43066 -0.38066,-1.3766 z" /></g><g
       id="g285"
       transform="matrix(0.003035,-1,-1,-0.003035,202.55,219.44)"
       style="fill:#e5c84c"
       aria-label="G"><path
         inkscape:connector-curvature="0"
         id="path283"
         d="m 4.8834,-0.48834 v -2.0111 h -1.465 v -0.3153 h 1.8457 v 2.5109 Q 4.8526,-0.10002 4.3604,-4e-5 3.8683,0.10378 3.3069,0.11147 q -1.2458,0 -1.9457,-0.78826 -0.70367,-0.78442 -0.70367,-2.1879 0,-1.4073 0.70367,-2.1956 0.69982,-0.78442 1.9457,-0.78442 0.51525,0 0.97283,0.10382 0.46142,0.11151 0.84594,0.32684 v 0.37298 q -0.3884,-0.2153 -0.8306,-0.3268 -0.4384,-0.1076 -0.9229,-0.1076 -1.1574,0 -1.738,0.65753 -0.58062,0.65368 -0.58062,1.9534 0,1.3189 0.58062,1.9841 0.58062,0.66906 1.738,0.66906 0.47296,0 0.84594,-0.065368 0.36914,-0.069213 0.66522,-0.21149 z" /></g><g
       id="g289"
       transform="matrix(0.0028953,-1,-1,-0.0028953,202.64,208.61)"
       style="fill:#e5c84c"
       aria-label="i"><path
         inkscape:connector-curvature="0"
         id="path287"
         d="M 0.88439,-4.3066 H 1.2381 V 0 H 0.88439 Z m 0,-1.6765 H 1.2381 v 0.48449 H 0.88439 Z" /></g><g
       id="g293"
       transform="matrix(0.0028318,-1,-1,-0.0028318,202.58,201.97)"
       style="fill:#e5c84c"
       aria-label="e"><path
         inkscape:connector-curvature="0"
         id="path291"
         d="m 4.2489,-2.3302 v 0.22302 H 0.9805 q 0,1.0382 0.40374,1.4535 0.44604,0.46142 1.3266,0.46142 0.23071,0 0.61138,-0.099975 0.38452,-0.099975 0.76135,-0.29992 v 0.37298 Q 3.7029,-0.057675 3.303,0.026915 2.9031,0.111509 2.66854,0.111509 q -0.9959,0 -1.4996,-0.53833 -0.54602,-0.57293 -0.54602,-1.6803 0,-1.1497 0.49987,-1.715 0.51141,-0.58831 1.4227,-0.58831 0.84594,0 1.2766,0.55755 0.42682,0.58447 0.42682,1.5227 z M 3.8913,-2.407104 q 0,-0.90746 -0.40759,-1.3227 -0.34222,-0.36914 -0.93053,-0.36914 -0.64215,0 -1.0767,0.38452 -0.3999,0.3576 -0.48065,1.3074 z" /></g><g
       id="g297"
       transform="matrix(0.0027302,-1,-1,-0.0027302,202.6,192.21)"
       style="fill:#e5c84c"
       aria-label="n"><path
         inkscape:connector-curvature="0"
         id="path295"
         d="M 4.1451,-2.5993 V 0 H 3.7913 v -2.5763 q 0,-0.83825 -0.26916,-1.1805 -0.26916,-0.34222 -0.79211,-0.34222 -0.61138,0 -1.0459,0.36914 -0.43835,0.37298 -0.43835,1.2958 V 2e-5 H 0.89216 v -4.3066 h 0.35372 v 0.80749 q 0.18841,-0.39221 0.49603,-0.59985 0.45373,-0.31146 1.0036,-0.31146 0.6383,0 1.019,0.43451 0.38067,0.43066 0.38067,1.3766 z" /></g><g
       id="g301"
       transform="matrix(0.0026286,-1,-1,-0.0026286,202.63,182.64)"
       style="fill:#e5c84c"
       aria-label="n"><path
         inkscape:connector-curvature="0"
         id="path299"
         d="M 4.1451,-2.5993 V 0 H 3.7913 v -2.5763 q 0,-0.83825 -0.26916,-1.1805 -0.26916,-0.34222 -0.79211,-0.34222 -0.61138,0 -1.0459,0.36914 -0.43835,0.37298 -0.43835,1.2958 V 2e-5 H 0.89216 v -4.3066 h 0.35372 v 0.80749 q 0.18841,-0.39221 0.49603,-0.59985 0.45373,-0.31146 1.0036,-0.31146 0.6383,0 1.019,0.43451 0.38067,0.43066 0.38067,1.3766 z" /></g><g
       id="g305"
       transform="matrix(0.0026032,-1,-1,-0.0026032,202.72,173.06)"
       style="fill:#e5c84c"
       aria-label="o"><path
         inkscape:connector-curvature="0"
         id="path303"
         d="M 3.453,-3.5683 Q 3.0723,-4.099 2.4148,-4.099 q -0.65753,0 -1.0382,0.52679 -0.38452,0.52294 -0.38452,1.415 0,0.91515 0.38067,1.4381 0.38067,0.52679 1.042,0.52679 0.65753,0 1.0382,-0.52679 0.38452,-0.53063 0.38452,-1.4381 0,-0.88055 -0.38452,-1.4112 z M 2.4109,-4.4104 q 0.82287,0 1.2997,0.61523 0.48065,0.61907 0.48065,1.6419 0,1.0574 -0.48065,1.6688 -0.4768,0.61523 -1.2997,0.61523 -0.83056,0 -1.3112,-0.61138 -0.47688,-0.6113 -0.47688,-1.6726 0,-1.0344 0.48065,-1.6457 0.48065,-0.61138 1.3074,-0.61138 z" /></g><g
       id="g309"
       transform="matrix(0.002527,-1,-1,-0.002527,202.67,163.27)"
       style="fill:#e5c84c"
       aria-label="i"><path
         inkscape:connector-curvature="0"
         id="path307"
         d="M 0.88439,-4.3066 H 1.2381 V 0 H 0.88439 Z m 0,-1.6765 H 1.2381 v 0.4845 H 0.88439 Z" /></g><g
       id="g313"
       transform="matrix(-0.16383,-0.98649,-0.98649,0.16383,203.05,155.91)"
       style="fill:#e5c84c"
       aria-label="s"><path
         inkscape:connector-curvature="0"
         id="path311"
         d="m 3.33,-4.1798 v 0.38837 Q 2.95701,-3.99907 2.86472,-4.02215 2.59555,-4.08752 2.19564,-4.099055 q -0.60755,0 -0.95363,0.24225 -0.26532,0.19995 -0.26532,0.68446 0,0.32685 0.24994,0.51142 0.26532,0.19995 0.75752,0.30762 l 0.24225,0.053834 q 0.6114,0.13458 0.92671,0.38068 0.3653,0.2807 0.38453,0.7306 0,0.6114 -0.36146,0.95747 -0.38453,0.34223 -1.2382,0.34223 -0.47681,0 -0.72291,-0.06537 -0.29609,-0.084596 -0.62293,-0.2038 v -0.44221 q 0.46912,0.26917 0.60755,0.30762 0.38068,0.099977 0.75367,0.099977 0.62293,0 0.91902,-0.25763 0.29993,-0.26148 0.29993,-0.68446 0,-0.35376 -0.19995,-0.51527 -0.2883,-0.2306 -0.9189,-0.3768 l -0.2461,-0.0576 q -0.5422,-0.1269 -0.82676,-0.3576 -0.35761,-0.2884 -0.35761,-0.6999 0,-0.67677 0.43067,-0.97285 0.43067,-0.29609 1.0574,-0.29609 0.53449,0 0.73829,0.057679 0.2461,0.069215 0.48066,0.17304 z" /></g><g
       id="g317"
       transform="matrix(0.9709,-0.2395,-0.2395,-0.9709,401.21,146.63)"
       style="fill:#e5c84c"
       aria-label="R"><path
         inkscape:connector-curvature="0"
         id="path315"
         d="m 3.3338,-2.6917 q 0.23841,0.084596 0.46143,0.36145 0.15766,0.19995 0.4499,0.76136 L 5.04883,1e-5 h -0.4114 l -0.8191,-1.5766 q -0.3191,-0.619 -0.6114,-0.819 -0.2999,-0.2 -0.8113,-0.2 H 1.35353 V 1e-5 H 0.96904 v -5.741 h 1.5573 q 0.88056,0 1.3151,0.41144 0.43451,0.41144 0.43451,1.242 0,0.53449 -0.22687,0.89979 -0.21533,0.35761 -0.71522,0.49604 z m -1.9803,-2.734 v 2.511 h 1.2689 q 0.61524,0 0.93055,-0.31916 0.31531,-0.31916 0.31531,-0.94209 0,-0.61909 -0.31531,-0.9344 Q 3.23764,-5.42566 2.6224,-5.42566 Z" /></g><g
       id="g321"
       transform="matrix(0.99809,-0.061777,-0.061777,-0.99809,411.82,144.76)"
       style="fill:#e5c84c"
       aria-label="e"><path
         inkscape:connector-curvature="0"
         id="path319"
         d="m 4.249,-2.3302 v 0.223 H 0.9805 q 0,1.0382 0.40375,1.4535 0.44605,0.46143 1.3266,0.46143 0.23071,0 0.61139,-0.099976 0.38452,-0.099976 0.76136,-0.29993 v 0.37299 q -0.3807,0.16153 -0.7806,0.24613 -0.3999,0.08459 -0.6345,0.08459 -0.99592,0 -1.4996,-0.53833 -0.54602,-0.57294 -0.54602,-1.6804 0,-1.1497 0.49988,-1.715 0.51142,-0.58832 1.4227,-0.58832 0.84595,0 1.2766,0.55756 0.42682,0.58448 0.42682,1.5227 z M 3.89139,-2.407105 q 0,-0.90748 -0.4076,-1.3228 -0.34223,-0.36914 -0.93055,-0.36914 -0.64215,0 -1.0767,0.38452 -0.3999,0.35761 -0.48065,1.3074 z" /></g><g
       id="g325"
       transform="matrix(0.99998,-0.0064001,-0.0064001,-0.99998,422.58,144.42)"
       style="fill:#e5c84c"
       aria-label="u"><path
         inkscape:connector-curvature="0"
         id="path323"
         d="M 0.84593,-1.7072 V -4.3066 H 1.1997 v 2.5762 q 0,0.83824 0.26916,1.1805 0.26916,0.34222 0.7921,0.34222 0.61138,0 1.0459,-0.36913 0.43835,-0.37298 0.43835,-1.2958 v -2.434 h 0.3536 V -1e-5 h -0.3537 v -0.80748 q -0.18841,0.3922 -0.49602,0.59984 -0.45373,0.31146 -1.0036,0.31146 -0.63829,0 -1.019,-0.4345 -0.38067,-0.43066 -0.38067,-1.3765 z" /></g><g
       id="g329"
       transform="matrix(0.99967,0.025867,0.025867,-0.99967,440.87,144.4)"
       style="fill:#e5c84c"
       aria-label="l"><path
         inkscape:connector-curvature="0"
         id="path327"
         d="M 0.89209,-5.9832 H 1.2459 V 0 H 0.89209 Z" /></g><g
       id="g333"
       transform="matrix(0.99609,0.088305,0.088305,-0.99609,448.04,144.95)"
       style="fill:#e5c84c"
       aria-label="l"><path
         inkscape:connector-curvature="0"
         id="path331"
         d="M 0.89209,-5.9831 H 1.2458 V 0 H 0.89209 Z" /></g><g
       id="g337"
       transform="matrix(0.96732,0.25356,0.25356,-0.96732,455.45,145.66)"
       style="fill:#e5c84c"
       aria-label="y"><path
         inkscape:connector-curvature="0"
         id="path335"
         d="M 2.3456,0.39991 Q 2.1149,0.97286 1.8496,1.192 1.492,1.4881 1.1497,1.4881 H 0.62294 V 1.1882 H 1.0728 q 0.28071,0 0.4922,-0.18073 0.273,-0.2346 0.4499,-0.68834 L 2.1418,-3e-5 0.423,-4.30673 h 0.37682 l 1.5304,3.8376 1.5343,-3.8376 h 0.37299 z" /></g><g
       id="g341"
       transform="matrix(-0.3111,-0.95038,-0.95038,0.3111,516.56,286.69)"
       style="fill:#eeda69"
       aria-label="S"><path
         inkscape:connector-curvature="0"
         id="path339"
         d="m 4.1682,-5.4525 v 0.36145 q -0.3768,-0.1885 -0.8344,-0.3346 -0.2999,-0.0961 -0.7575,-0.1038 -0.6768,-0.0115 -1.0997,0.2999 -0.3846,0.2846 -0.3846,0.9767 0,0.42682 0.29224,0.67676 0.31146,0.26532 0.93823,0.42682 l 0.45758,0.1192 q 0.61523,0.1615 0.94977,0.38452 0.62677,0.42682 0.62677,1.0728 0,0.93438 -0.54986,1.2958 -0.59985,0.38837 -1.2305,0.38837 -0.65753,0 -1.1766,-0.18072 -0.32684,-0.13074 -0.68445,-0.36145 v -0.37683 q 0.53833,0.31915 0.75366,0.40759 0.48065,0.19611 0.89209,0.19611 0.70367,0 1.1689,-0.31146 0.43835,-0.29224 0.43835,-1.0267 0,-0.43066 -0.26916,-0.67676 -0.3882,-0.3577 -1.0073,-0.5076 L 2.23032,-2.838 Q 1.67661,-2.97258 1.28825,-3.21483 0.69993,-3.58397 0.69993,-4.22223 q 0,-0.79596 0.48065,-1.2228 0.44604,-0.39606 1.3535,-0.3999 0.53448,0 0.81903,0.092285 0.73059,0.2384 0.81518,0.29993 z" /></g><g
       id="g345"
       transform="matrix(-0.25895,-0.96589,-0.96589,0.25895,512.6,274.55)"
       style="fill:#eeda69"
       aria-label="a"><path
         inkscape:connector-curvature="0"
         id="path343"
         d="m 2.6148,-2.4302 q -0.85365,0 -1.2305,0.30378 -0.37684,0.30378 -0.37684,0.88826 0,0.5691 0.31147,0.80751 0.31147,0.23841 0.73829,0.23841 0.80751,0 1.1613,-0.68446 0.35761,-0.68446 0.35761,-1.2882 V -2.43022 Z M 3.9337,-2.4571 V 0 H 3.5838 v -1.169 q -0.29609,0.8575 -0.78444,1.0921 -0.38837,0.18842 -0.7729,0.18842 -0.64216,0 -1.0113,-0.34223 -0.36915,-0.34607 -0.36915,-1.0152 0,-0.66908 0.48066,-1.069 0.48066,-0.40375 1.5727,-0.40375 h 0.87672 v -0.069215 q 0,-0.57295 -0.32685,-0.94209 -0.323,-0.36915 -1.069,-0.36915 -0.36915,0 -0.75367,0.13843 -0.2461,0.088441 -0.63832,0.35761 v -0.38068 q 0.34223,-0.21149 0.63832,-0.29993 0.43067,-0.12689 0.82673,-0.12689 0.76136,0 1.2536,0.46143 0.42683,0.39606 0.42683,1.492 z" /></g><g
       id="g349"
       transform="matrix(-0.10897,-0.99405,-0.99405,0.10897,510.35,262.26)"
       style="fill:#eeda69"
       aria-label="n"><path
         inkscape:connector-curvature="0"
         id="path347"
         d="M 4.1451,-2.5994 V 0 H 3.7914 v -2.5763 q 0,-0.83826 -0.26916,-1.1805 -0.26916,-0.34222 -0.79211,-0.34222 -0.61139,0 -1.0459,0.36914 -0.43835,0.37299 -0.43835,1.2958 V 2e-5 H 0.89217 v -4.3066 h 0.35371 v 0.80749 Q 1.4343,-3.8913 1.74191,-4.09894 2.19564,-4.4104 2.74551,-4.4104 q 0.6383,0 1.019,0.43451 0.38068,0.43066 0.38068,1.3766 z" /></g><g
       id="g353"
       transform="matrix(-0.078197,-0.99694,-0.99694,0.078197,509.13,250.4)"
       style="fill:#eeda69"
       aria-label="c"><path
         inkscape:connector-curvature="0"
         id="path351"
         d="m 3.8414,-4.099 v 0.37683 q -0.3192,-0.1961 -0.5268,-0.2653 -0.3576,-0.1115 -0.6845,-0.1115 -0.93054,0 -1.3343,0.47681 -0.40375,0.47681 -0.40375,1.4727 0,1.0036 0.40375,1.4804 0.40375,0.47681 1.3343,0.47681 0.30762,0 0.60754,-0.084595 0.30377,-0.08075 0.6037,-0.24609 v 0.35761 q -0.2961,0.13847 -0.6114,0.20769 -0.3192,0.06921 -0.6306,0.06921 -0.94592,0 -1.5035,-0.51141 -0.55756,-0.51526 -0.55756,-1.7496 0,-1.23434 0.55756,-1.7496 0.55756,-0.51141 1.5035,-0.51141 0.30762,0 0.65369,0.08844 0.34607,0.084595 0.58832,0.22302 z" /></g><g
       id="g359"
       transform="matrix(-0.01727,-0.99985,-0.99985,0.01727,508.46,238.65)"
       style="fill:#eeda69"
       aria-label="er"><path
         inkscape:connector-curvature="0"
         id="path355"
         d="m 4.249,-2.3302 v 0.22302 H 0.9805 q 0,1.0382 0.40375,1.4535 0.44605,0.46143 1.3266,0.46143 0.23072,0 0.61139,-0.099976 0.38453,-0.099976 0.76136,-0.29993 v 0.37299 q -0.3807,0.16153 -0.7806,0.24613 -0.3999,0.08459 -0.6345,0.08459 -0.99592,0 -1.4996,-0.53834 -0.54603,-0.57294 -0.54603,-1.6804 0,-1.1497 0.49988,-1.715 0.51142,-0.58832 1.4227,-0.58832 0.84596,0 1.2766,0.55756 0.42682,0.58448 0.42682,1.5227 z M 3.89139,-2.407105 q 0,-0.90748 -0.4076,-1.3228 -0.34223,-0.36914 -0.93055,-0.36914 -0.64216,0 -1.0767,0.38453 -0.39991,0.35761 -0.48066,1.3074 z" /><path
         inkscape:connector-curvature="0"
         id="path357"
         d="m 15.649,-4.0029 q -0.0846,-0.042298 -0.23072,-0.07306 -0.13074,-0.023072 -0.33069,-0.023072 -0.65369,0 -1.0844,0.4845 -0.33838,0.39222 -0.33838,1.3458 v 2.2687 h -0.34607 v -4.3067 h 0.34607 v 0.8075 q 0.17304,-0.34607 0.4845,-0.58448 0.43067,-0.32685 1.0151,-0.32685 0.14996,0 0.26148,0.011536 0.11536,0 0.22302,0.026917 z" /></g><g
       id="g363"
       transform="matrix(0.040902,-0.99916,-0.99916,-0.040902,508,215.62)"
       style="fill:#eeda69"
       aria-label="r"><path
         inkscape:connector-curvature="0"
         id="path361"
         d="M 3.23,-4.0029 Q 3.145405,-4.045197 2.99929,-4.075959 2.86855,-4.09903 2.6686,-4.09903 q -0.65369,0 -1.0843,0.4845 -0.3385,0.3922 -0.3385,1.3458 V -3e-5 H 0.89978 v -4.3066 H 1.2458 v 0.80749 q 0.1731,-0.3461 0.4845,-0.5845 0.4307,-0.3269 1.0152,-0.3269 0.14996,0 0.26147,0.011536 0.11536,0 0.22302,0.026917 z" /></g><g
       id="g367"
       transform="matrix(-0.13122,-0.99135,-0.99135,0.13122,508.67,204.37)"
       style="fill:#eeda69"
       aria-label="e"><path
         inkscape:connector-curvature="0"
         id="path365"
         d="m 4.249,-2.3302 v 0.22303 H 0.9805 q 0,1.0382 0.40375,1.4535 0.44605,0.46143 1.3266,0.46143 0.23072,0 0.6114,-0.099977 0.38453,-0.099977 0.76136,-0.29993 v 0.37299 q -0.38068,0.1615 -0.78059,0.2461 -0.39991,0.084596 -0.63447,0.084596 -0.99592,0 -1.4997,-0.53834 -0.54603,-0.57294 -0.54603,-1.6804 0,-1.1497 0.49988,-1.715 0.51142,-0.58833 1.4227,-0.58833 0.84596,0 1.2766,0.55756 0.42682,0.58448 0.42682,1.5227 z M 3.89139,-2.407105 q 0,-0.90748 -0.4076,-1.3228 -0.34223,-0.36915 -0.93055,-0.36915 -0.64216,0 -1.0767,0.38453 -0.39991,0.35761 -0.48066,1.3074 z" /></g><g
       id="g371"
       transform="translate(300.04,141.95)"><path
         inkscape:connector-curvature="0"
         id="path369"
         style="fill:#e2ad45"
         d="m 0,0 c -15.414,0 -30.873,1.658 -36.217,4.983 -3.406,2.117 -3.396,7.57 -3.384,8.185 0.002,0.75 0.193,77.441 0.288,92.781 0.085,14.493 0.998,18.462 2.813,26.371 l 0.455,1.988 c 1.825,8.047 7.191,24.32 11.505,37.394 3.039,9.214 5.664,17.173 6.391,20.206 1.763,7.327 3.102,26.634 3.114,26.828 0.205,11.895 0.587,34.16 0.622,36.5 -0.115,0.185 -0.373,0.498 -0.561,0.696 l -0.35,0.369 -0.01,0.509 c -0.097,4.812 -0.063,7.546 0.101,8.125 0.17,0.59 0.596,1.441 0.857,1.929 -0.029,0.837 0.043,2.652 1.048,4.249 1.195,1.915 6.896,2.32 11.47,2.32 h 3.414 c 4.569,0 10.27,-0.402 11.474,-2.324 1.001,-1.595 1.074,-3.408 1.046,-4.243 0.263,-0.49 0.687,-1.341 0.858,-1.931 0.166,-0.579 0.196,-3.315 0.095,-8.125 l -0.009,-0.509 -0.353,-0.369 c -0.212,-0.224 -0.451,-0.526 -0.563,-0.698 0.038,-2.338 0.423,-24.607 0.634,-36.565 0.011,-0.127 1.348,-19.434 3.108,-26.761 0.727,-3.027 3.344,-10.96 6.374,-20.147 4.322,-13.096 9.697,-29.394 11.525,-37.455 l 0.472,-2.07 c 1.318,-5.754 2.187,-9.556 2.567,-17.083 l -2.621,-0.131 c -0.369,7.297 -1.173,10.81 -2.504,16.63 l -0.471,2.076 c -1.799,7.936 -7.158,24.168 -11.459,37.21 -3.051,9.244 -5.684,17.223 -6.437,20.355 -1.811,7.545 -3.119,26.461 -3.177,27.263 -0.028,1.55 -0.637,36.423 -0.637,36.871 0,0.216 0,0.824 0.937,1.926 0.06,3.076 0.067,6.392 -0.022,6.927 -0.088,0.302 -0.522,1.16 -0.794,1.656 l -0.205,0.366 0.044,0.419 c 0.002,0.009 0.166,1.718 -0.633,2.994 -0.627,0.55 -4.975,1.091 -9.249,1.093 h -3.414 c -4.27,-0.002 -8.618,-0.543 -9.301,-1.161 -0.75,-1.209 -0.58,-2.908 -0.58,-2.924 l 0.05,-0.418 -0.206,-0.369 c -0.275,-0.496 -0.708,-1.354 -0.812,-1.723 -0.076,-0.472 -0.069,-3.786 -0.013,-6.862 0.934,-1.1 0.934,-1.708 0.934,-1.924 0,-0.448 -0.601,-35.321 -0.626,-36.803 -0.057,-0.87 -1.369,-19.788 -3.183,-27.331 -0.755,-3.138 -3.395,-11.145 -6.453,-20.416 -4.295,-13.021 -9.639,-29.224 -11.437,-37.149 l -0.455,-1.996 c -1.773,-7.719 -2.663,-11.595 -2.748,-25.798 -0.095,-15.334 -0.286,-92.024 -0.288,-92.795 -0.02,-1.28 0.322,-4.795 2.145,-5.927 9.953,-6.191 59.848,-6.199 69.339,-0.014 L 35.943,4.985 C 30.831,1.655 15.439,-0.012 0,-0.012" /></g><g
       id="g375"
       transform="translate(340.23,250.13)"><path
         inkscape:connector-curvature="0"
         id="path373"
         style="fill:#e2ad45"
         d="m 0,0 -2.834,-0.028 0.021,-1.998 c 0.02,-1.837 2.854,-1.809 2.834,0.029 z m -3.218,-0.035 -1.909,-0.016 -0.006,0.424 5.525,0.058 c 0.006,-0.806 0.014,-1.619 0.022,-2.424 0.025,-2.4 -3.589,-2.435 -3.611,-0.035 z" /></g><g
       id="g379"
       transform="translate(337.11,237.53)"><path
         inkscape:connector-curvature="0"
         id="path377"
         style="fill:#e2ad45"
         d="M 0,0 C 1.011,0.004 1.661,0.726 1.657,1.609 1.65,2.493 0.992,3.209 -0.017,3.203 -1.027,3.199 -1.631,2.475 -1.624,1.593 -1.622,0.709 -1.009,-0.007 0,0 M -0.017,3.58 C 1.22,3.589 2.016,2.709 2.02,1.611 2.026,0.515 1.24,-0.371 0.004,-0.38 -1.238,-0.386 -2,0.494 -2.004,1.591 -2.01,2.688 -1.259,3.576 -0.017,3.58" /></g><g
       id="g383"
       transform="translate(335.2,228.46)"><path
         inkscape:connector-curvature="0"
         id="path381"
         style="fill:#e2ad45"
         d="M 0,0 0.703,0.004 C 0.164,0.301 -0.058,0.845 -0.069,1.388 -0.074,2.431 0.562,3.152 1.641,3.156 L 3.893,3.169 V 2.783 L 1.65,2.769 C 0.767,2.765 0.297,2.22 0.308,1.374 0.32,0.57 0.931,0.014 1.735,0.017 L 3.906,0.026 V -0.359 L 0.004,-0.38 Z" /></g><g
       id="g387"
       transform="translate(340.39,222.52)"><path
         inkscape:connector-curvature="0"
         id="path385"
         style="fill:#e2ad45"
         d="M 0,0 C -0.41,-0.004 -0.408,-0.625 0.002,-0.623 0.412,-0.621 0.41,0.003 0,0 m -1.255,-0.502 -3.911,-0.02 -0.002,0.385 3.913,0.019 z" /></g><g
       id="g391"
       transform="translate(340.76,215.95)"><path
         inkscape:connector-curvature="0"
         id="path389"
         style="fill:#e2ad45"
         d="M 0,0 -5.521,-0.027 -5.524,0.358 0,0.388 Z" /></g><g
       id="g395"
       transform="translate(340.78,209.78)"><path
         inkscape:connector-curvature="0"
         id="path393"
         style="fill:#e2ad45"
         d="M 0,0 -5.522,-0.026 -5.525,0.359 0,0.388 Z" /></g><g
       id="g399"
       transform="translate(339.19,200.61)"><path
         inkscape:connector-curvature="0"
         id="path397"
         style="fill:#e2ad45"
         d="M 0,0 -5.535,2.348 -5.537,2.758 -3.859,2.049 -0.019,3.63 -0.016,3.213 -2.315,2.295 -3.443,1.831 -2.301,1.388 -0.002,0.42 Z" /></g><g
       id="g403"
       transform="translate(338.21,188.57)"><path
         inkscape:connector-curvature="0"
         id="path401"
         style="fill:#e2ad45"
         d="M 0,0 0.014,-3.183 -0.388,-3.185 -0.402,-0.004 -2.904,-0.017 -2.908,0.41 2.625,0.437 2.642,-3.279 2.217,-3.281 2.198,0.01 Z" /></g><g
       id="g407"
       transform="translate(335.35,176.61)"><path
         inkscape:connector-curvature="0"
         id="path405"
         style="fill:#e2ad45"
         d="M 0,0 0.702,0.004 C 0.164,0.302 -0.06,0.845 -0.069,1.389 -0.073,2.43 0.563,3.152 1.641,3.156 L 3.893,3.168 V 2.783 L 1.651,2.769 C 0.768,2.765 0.298,2.219 0.308,1.374 0.32,0.57 0.932,0.015 1.735,0.017 L 3.907,0.026 3.909,-0.359 0.002,-0.38 Z" /></g><g
       id="g411"
       transform="translate(335.39,164.82)"><path
         inkscape:connector-curvature="0"
         id="path409"
         style="fill:#e2ad45"
         d="M 0,0 2.336,0.01 C 3.087,0.014 3.611,0.522 3.609,1.263 3.604,2.003 3.05,2.514 2.299,2.512 L -0.014,2.5 v 0.385 l 2.311,0.014 c 0.751,0.002 1.292,0.517 1.29,1.262 -0.006,0.74 -0.552,1.242 -1.3,1.236 L -0.026,5.387 -0.028,5.774 3.868,5.793 3.87,5.433 3.224,5.418 C 3.736,5.155 3.952,4.657 3.956,4.152 3.96,3.56 3.693,2.937 3.001,2.705 3.643,2.471 3.969,1.866 3.971,1.265 3.977,0.31 3.309,-0.371 2.338,-0.378 l -2.336,-0.01 z" /></g><g
       id="g415"
       transform="translate(339.96,156.68)"><path
         inkscape:connector-curvature="0"
         id="path413"
         style="fill:#e2ad45"
         d="M 0,0 0.949,-0.757 H 0.955 L 0.972,-0.244 0.043,0.375 0.01,0.38 Z m -2.394,1.77 -0.098,-3.163 c 0.964,-0.022 1.517,0.593 1.549,1.531 0.022,0.805 -0.501,1.517 -1.451,1.632 M -4.606,0.25 c 0.033,1.098 0.824,1.957 2.065,1.92 1.167,-0.035 1.985,-0.945 1.952,-2.043 -0.035,-1.097 -0.734,-2.053 -2.252,-1.857 l 0.105,3.51 C -3.652,1.729 -4.202,1.042 -4.227,0.238 -4.243,-0.274 -4.055,-0.88 -3.68,-1.184 l -0.227,-0.27 c -0.488,0.393 -0.718,1.081 -0.699,1.704" /></g><g
       id="g419"
       transform="translate(104.29,193.44)"><path
         inkscape:connector-curvature="0"
         id="path417"
         style="fill:#eeda69"
         d="m 0,0 h -3.414 c -4.571,0 -10.274,0.404 -11.475,2.325 l 2.228,1.389 c -0.029,0.047 -0.054,0.07 -0.054,0.07 0.684,-0.615 5.028,-1.157 9.301,-1.159 H 0 c 4.274,0.002 8.622,0.544 9.305,1.161 0.746,1.208 0.58,2.91 0.578,2.926 l -0.047,0.419 0.205,0.367 c 0.274,0.494 0.707,1.354 0.812,1.721 0.074,0.471 0.066,3.785 0.006,6.861 -0.937,1.1 -0.937,1.711 -0.937,1.926 0,0.447 0.609,35.321 0.636,36.806 0.057,0.868 1.368,19.786 3.178,27.327 0.753,3.133 3.388,11.115 6.436,20.355 4.303,13.041 9.659,29.274 11.458,37.212 l 0.467,2.053 c 1.761,7.705 2.645,11.572 2.732,25.739 0.096,15.336 0.284,92.023 0.287,92.796 -0.003,1.257 -0.394,4.786 -2.164,5.941 -9.489,6.187 -59.389,6.177 -69.341,-0.016 -1.821,-1.132 -2.166,-4.648 -2.143,-5.905 0,-0.793 0.191,-77.48 0.287,-92.816 l 0.025,-2.524 -2.625,-0.039 -0.025,2.546 c -0.096,15.34 -0.287,92.032 -0.287,92.805 -0.014,0.593 -0.025,6.045 3.384,8.164 10.695,6.651 61.952,6.641 72.159,-0.016 3.27,-2.133 3.355,-7.539 3.355,-8.146 -0.003,-0.775 -0.191,-77.467 -0.287,-92.805 -0.087,-14.455 -0.993,-18.418 -2.798,-26.308 l -0.466,-2.04 c -1.827,-8.07 -7.204,-24.36 -11.525,-37.46 C 19.635,92.489 17.018,84.558 16.29,81.53 14.53,74.205 13.193,54.897 13.179,54.704 12.974,42.812 12.584,20.554 12.549,18.203 c 0.117,-0.184 0.373,-0.5 0.562,-0.694 l 0.351,-0.369 0.012,-0.511 C 13.576,11.816 13.544,9.082 13.378,8.503 13.209,7.911 12.78,7.062 12.522,6.571 12.551,5.737 12.473,3.924 11.475,2.326 10.271,0.407 4.569,0.005 0,0.005" /></g><g
       id="g423"
       transform="translate(90.359,205.87)"><path
         inkscape:connector-curvature="0"
         id="path421"
         style="fill:#eeda69"
         d="m 0,0 c 0.66,-0.417 1.093,-1.069 1.257,-1.776 0.415,-1.816 -0.638,-3.052 -2.087,-3.392 -1.436,-0.345 -2.997,0.284 -3.419,2.13 -0.164,0.708 -0.058,1.483 0.356,2.145 l 0.312,-0.227 c -0.355,-0.568 -0.439,-1.227 -0.299,-1.833 0.359,-1.569 1.651,-2.123 2.941,-1.818 1.259,0.302 2.168,1.354 1.811,2.907 -0.14,0.606 -0.511,1.169 -1.071,1.527 z" /></g><g
       id="g427"
       transform="translate(86.116,213.43)"><path
         inkscape:connector-curvature="0"
         id="path425"
         style="fill:#eeda69"
         d="M 0,0 2.34,-0.108 C 1.797,0.229 1.61,0.783 1.626,1.325 1.676,2.409 2.399,2.916 3.413,2.871 L 5.634,2.769 5.617,2.392 3.395,2.494 C 2.595,2.532 2.034,2.178 1.995,1.307 1.959,0.492 2.562,-0.103 3.367,-0.14 l 2.129,-0.096 -0.018,-0.387 -5.495,0.254 z" /></g><g
       id="g431"
       transform="translate(91.288,226.02)"><path
         inkscape:connector-curvature="0"
         id="path429"
         style="fill:#eeda69"
         d="m 0,0 c 0.015,-0.886 -0.629,-1.605 -1.609,-1.62 -0.977,-0.015 -1.635,0.686 -1.65,1.571 C -3.291,2.118 -0.032,2.168 0,0 m -3.604,1.538 0.85,0.013 C -3.356,1.22 -3.64,0.576 -3.63,-0.058 c 0.019,-1.087 0.835,-1.966 2.028,-1.948 1.19,0.019 1.998,0.921 1.982,2.01 C 0.369,0.636 0.076,1.216 -0.537,1.585 L 0.292,1.6 0.285,1.983 C -1.015,1.965 -2.311,1.944 -3.611,1.924 Z m -1.625,-1.698 -0.006,0.316 1.025,1.136 0.056,0.002 0.006,-0.418 -0.745,-0.872 0.771,-0.849 0.007,-0.421 h -0.056 z" /></g><g
       id="g435"
       transform="translate(86.348,236.5)"><path
         inkscape:connector-curvature="0"
         id="path433"
         style="fill:#eeda69"
         d="M 0,0 1.176,0.016 1.155,1.343 1.479,1.347 1.5,0.022 3.874,0.057 C 4.403,0.065 4.772,0.18 4.763,0.789 4.761,0.978 4.694,1.191 4.597,1.386 L 4.91,1.527 C 5.031,1.283 5.115,1.039 5.119,0.795 5.132,-0.035 4.646,-0.308 3.881,-0.322 L 1.506,-0.357 1.518,-1.186 1.194,-1.189 1.182,-0.363 0.046,-0.38 Z" /></g><g
       id="g439"
       transform="translate(89.084,248.81)"><path
         inkscape:connector-curvature="0"
         id="path437"
         style="fill:#eeda69"
         d="m 0,0 c -0.958,-0.043 -1.469,-0.689 -1.436,-1.627 0.029,-0.8 0.595,-1.47 1.548,-1.521 z m 0.283,-3.536 c -1.161,-0.043 -2.032,0.808 -2.073,1.897 -0.039,1.093 0.595,2.09 2.114,1.995 l 0.125,-3.494 c 0.908,0.113 1.408,0.83 1.38,1.63 -0.016,0.511 -0.242,1.1 -0.638,1.376 L 1.402,0.151 C 1.909,-0.207 2.184,-0.874 2.206,-1.495 2.245,-2.586 1.516,-3.493 0.283,-3.536" /></g><g
       id="g443"
       transform="translate(88.542,257.1)"><path
         inkscape:connector-curvature="0"
         id="path441"
         style="fill:#eeda69"
         d="M 0,0 C 0.975,0.097 1.557,0.867 1.473,1.747 1.264,3.904 -1.98,3.589 -1.77,1.432 -1.686,0.552 -0.972,-0.093 0,0 M -2.282,3.369 C -0.988,3.494 0.3,3.619 1.596,3.747 L 1.633,3.361 0.809,3.281 C 1.448,2.963 1.789,2.409 1.849,1.782 1.953,0.697 1.223,-0.269 0.037,-0.384 -1.146,-0.496 -2.034,0.312 -2.139,1.395 -2.2,2.024 -1.971,2.687 -1.398,3.065 L -2.245,2.983 Z" /></g><g
       id="g447"
       transform="translate(88.772,271.64)"><path
         inkscape:connector-curvature="0"
         id="path445"
         style="fill:#eeda69"
         d="m 0,0 -0.691,-0.106 c 0.574,-0.213 0.874,-0.716 0.965,-1.251 0.159,-1.026 -0.363,-1.831 -1.427,-1.996 l -2.215,-0.34 -0.057,0.38 2.206,0.339 c 0.87,0.136 1.253,0.745 1.116,1.576 -0.129,0.792 -0.812,1.251 -1.606,1.127 l -2.137,-0.332 -0.059,0.384 3.847,0.595 z" /></g><g
       id="g451"
       transform="translate(84.908,285.66)"><path
         inkscape:connector-curvature="0"
         id="path449"
         style="fill:#eeda69"
         d="m 0,0 -2.217,-0.714 c -0.714,-0.227 -1.06,-0.87 -0.835,-1.573 0.226,-0.703 0.907,-1.022 1.618,-0.794 L 0.761,-2.377 0.88,-2.744 -1.316,-3.45 c -0.712,-0.228 -1.071,-0.877 -0.845,-1.583 0.225,-0.705 0.896,-1.017 1.607,-0.789 l 2.195,0.705 0.119,-0.367 -3.701,-1.188 -0.11,0.345 0.612,0.205 c -0.569,0.097 -0.923,0.505 -1.077,0.984 -0.18,0.56 -0.115,1.235 0.474,1.663 -0.679,0.032 -1.171,0.507 -1.354,1.078 -0.289,0.906 0.139,1.754 1.06,2.05 l 2.22,0.711 z" /></g><g
       id="g455"
       transform="translate(79.283,296)"><path
         inkscape:connector-curvature="0"
         id="path453"
         style="fill:#eeda69"
         d="m 0,0 c -0.91,-0.312 -1.223,-1.081 -0.927,-1.969 0.252,-0.764 0.989,-1.255 1.924,-1.035 z m 1.27,-3.328 c -1.11,-0.369 -2.189,0.205 -2.534,1.247 -0.343,1.039 -0.015,2.18 1.477,2.516 l 1.105,-3.332 c 0.843,0.365 1.124,1.197 0.87,1.959 -0.16,0.487 -0.543,0.992 -1.002,1.147 l 0.121,0.33 C 1.899,0.339 2.353,-0.226 2.549,-0.818 2.894,-1.86 2.446,-2.938 1.27,-3.328" /></g><g
       id="g459"
       transform="translate(75.051,303.13)"><path
         inkscape:connector-curvature="0"
         id="path457"
         style="fill:#eeda69"
         d="M 0,0 3.714,1.212 3.595,1.579 -0.121,0.367 Z m -1.35,0.096 c 0.388,0.13 0.582,-0.463 0.193,-0.59 -0.39,-0.128 -0.582,0.465 -0.193,0.59" /></g><g
       id="g463"
       transform="translate(70.871,310.84)"><path
         inkscape:connector-curvature="0"
         id="path461"
         style="fill:#eeda69"
         d="M 0,0 5.243,1.682 5.362,1.314 0.119,-0.369 Z" /></g><g
       id="g467"
       transform="translate(68.367,318.79)"><path
         inkscape:connector-curvature="0"
         id="path465"
         style="fill:#eeda69"
         d="M 0,0 5.271,1.629 5.385,1.26 0.114,-0.369 Z" /></g><g
       id="g471"
       transform="translate(69.516,327.55)"><path
         inkscape:connector-curvature="0"
         id="path469"
         style="fill:#eeda69"
         d="M 0,0 C 0.943,0.248 1.396,1.1 1.173,1.95 0.621,4.042 -2.522,3.218 -1.971,1.122 -1.748,0.271 -0.943,-0.248 0,0 m -2.785,2.951 c 1.255,0.33 2.502,0.66 3.759,0.988 L 1.07,3.568 0.272,3.357 C 0.955,3.148 1.378,2.656 1.538,2.049 1.813,0.997 1.249,-0.071 0.101,-0.375 -1.051,-0.677 -2.053,-0.021 -2.33,1.029 -2.49,1.639 -2.371,2.33 -1.866,2.793 L -2.688,2.578 Z" /></g><g
       id="g475"
       transform="translate(64.887,338.6)"><path
         inkscape:connector-curvature="0"
         id="path473"
         style="fill:#eeda69"
         d="M 0,0 0.681,0.129 C 0.099,0.322 -0.22,0.814 -0.33,1.348 -0.525,2.369 -0.035,3.191 1.025,3.395 L 3.228,3.816 3.3,3.438 1.105,3.017 C 0.24,2.851 -0.121,2.228 0.045,1.4 0.203,0.615 0.904,0.181 1.691,0.332 L 3.818,0.74 3.891,0.361 0.071,-0.373 Z" /></g><g
       id="g479"
       transform="translate(62.182,350.41)"><path
         inkscape:connector-curvature="0"
         id="path477"
         style="fill:#eeda69"
         d="M 0,0 1.171,0.065 1.098,1.385 1.419,1.402 1.493,0.084 3.855,0.218 C 4.381,0.246 4.743,0.377 4.709,0.98 4.7,1.169 4.625,1.378 4.52,1.569 L 4.825,1.721 C 4.957,1.482 5.049,1.245 5.063,1.001 5.11,0.179 4.639,-0.117 3.876,-0.16 L 1.514,-0.293 1.559,-1.117 1.236,-1.134 1.191,-0.312 0.062,-0.373 Z" /></g></g><g
     id="g487"
     transform="matrix(1.3333,-0.00336912,0.00336912,1.3333,577.89222,611.69814)"
     style="fill:#e2ad45"
     aria-label="ii"><path
       inkscape:connector-curvature="0"
       id="path483"
       d="M 0.88441,-4.3067 H 1.2382 V 0 H 0.88441 Z m 0,-1.6765 H 1.2382 v 0.4845 H 0.88441 Z" /><path
       inkscape:connector-curvature="0"
       id="path485"
       d="m -71.606,-323.72 h 0.35377 v 4.3067 H -71.606 Z m 0,-1.6765 h 0.35377 v 0.48451 H -71.606 Z" /></g><g
     id="g567"
     clip-path="url(#clipPath570)"
     transform="matrix(1.3333,0,0,-1.3333,0,803.96)"><g
       id="g491"
       transform="translate(299.5,570.92)"><path
         inkscape:connector-curvature="0"
         id="path489"
         style="fill:#8faf6e"
         d="m 0,0 c -148.3,0 -268.94,-120.65 -268.94,-268.94 0,-148.3 120.65,-268.94 268.94,-268.94 148.3,0 268.94,120.65 268.94,268.94 C 268.94,-120.65 148.3,0 0,0 m 0,-563.89 c -78.782,0 -152.85,30.68 -208.56,86.387 -55.708,55.708 -86.387,129.77 -86.387,208.56 0,78.783 30.679,152.85 86.387,208.56 55.71,55.7 129.78,86.38 208.56,86.38 78.782,0 152.85,-30.68 208.56,-86.388 55.708,-55.708 86.387,-129.77 86.387,-208.56 0,-78.784 -30.679,-152.85 -86.387,-208.56 -55.71,-55.7 -129.78,-86.38 -208.56,-86.38" /></g><g
       id="g495"
       transform="translate(272.7,289.75)"><path
         inkscape:connector-curvature="0"
         id="path493"
         style="fill:#ffffff"
         d="m 0,0 h -167.84 c -0.834,0 -1.511,0.676 -1.511,1.511 0,0.834 0.677,1.51 1.511,1.51 H 0 c 0.834,0 1.511,-0.676 1.511,-1.51 C 1.511,0.676 0.834,0 0,0" /></g><g
       id="g499"
       transform="translate(283.36,291.16)"><path
         inkscape:connector-curvature="0"
         id="path497"
         style="fill:#ffffff"
         d="m 0,0 c 0,-5.033 3.344,-7.605 7.422,-7.605 4.263,0 7.422,3.123 7.422,7.642 0,4.52 -3.233,7.606 -7.422,7.606 C 3.344,7.643 0,5.107 0,0 m 16.645,16.645 v -25.72 h -1.764 v 4.005 c -1.506,-2.756 -4.483,-4.299 -7.568,-4.299 -5.072,0 -9.077,3.344 -9.077,9.369 0,5.989 4.042,9.37 9.113,9.37 3.123,0 6.062,-1.323 7.532,-4.263 v 11.538 z" /></g><g
       id="g503"
       transform="translate(319.27,282.08)"><path
         inkscape:connector-curvature="0"
         id="path501"
         style="fill:#ffffff"
         d="m 0,0 v 3.271 c -1.396,-2.5 -3.932,-3.528 -6.467,-3.565 -4.85,0 -8.194,2.977 -8.194,8.01 v 10.472 h 1.801 V 7.753 c 0,-4.115 2.535,-6.32 6.466,-6.283 3.748,0.037 6.357,2.866 6.357,6.613 V 18.188 H 1.764 V 0 Z" /></g><g
       id="g507"
       transform="translate(490.64,289.79)"><path
         inkscape:connector-curvature="0"
         id="path505"
         style="fill:#ffffff"
         d="m 0,0 h -159.54 c -0.814,0 -1.473,0.659 -1.473,1.473 0,0.813 0.659,1.472 1.473,1.472 H 0 C 0.813,2.945 1.473,2.286 1.473,1.473 1.473,0.659 0.813,0 0,0" /></g><g
       id="g511"
       transform="translate(141.64,230.63)"><path
         inkscape:connector-curvature="0"
         id="path509"
         style="fill:#ffffff"
         d="m 0,0 c -3.97,-3.914 -9.097,-5.733 -14.665,-5.733 -14.334,0 -20.398,9.868 -20.453,19.901 -0.055,10.089 6.505,20.344 20.453,20.344 5.238,0 10.199,-1.986 14.168,-5.9 l -4.851,-4.685 c -2.536,2.48 -5.954,3.637 -9.317,3.637 -9.317,0 -13.341,-6.946 -13.286,-13.396 0.055,-6.395 3.749,-13.065 13.286,-13.065 3.363,0 7.167,1.377 9.703,3.914 z" /></g><g
       id="g515"
       transform="translate(172.78,225.77)"><path
         inkscape:connector-curvature="0"
         id="path513"
         style="fill:#ffffff"
         d="M 0,0 H -28.888 V 38.591 H 0 v -7.057 h -21.666 v -8.876 h 20.895 v -6.78 H -21.666 V 7.167 H 0 Z" /></g><g
       id="g519"
       transform="translate(203.15,264.42)"><path
         inkscape:connector-curvature="0"
         id="path517"
         style="fill:#ffffff"
         d="m 0,0 h 7.277 v -38.646 h -4.52 v -0.055 l -20.288,26.076 v -26.021 h -7.278 v 38.59 h 5.899 L 0,-23.981 Z" /></g><g
       id="g523"
       transform="translate(225.37,257.75)"><path
         inkscape:connector-curvature="0"
         id="path521"
         style="fill:#ffffff"
         d="M 0,0 H -12.239 V 6.615 H 19.516 V 0 H 7.277 V -31.976 H 0 Z" /></g><g
       id="g527"
       transform="translate(254.91,257.58)"><path
         inkscape:connector-curvature="0"
         id="path525"
         style="fill:#ffffff"
         d="m 0,0 v -12.349 h 11.081 c 4.631,0 6.616,3.087 6.616,6.175 0,3.087 -2.04,6.174 -6.616,6.174 z M 26.903,-31.81 H 18.248 L 7.001,-18.909 H 0 V -31.81 H -7.277 V 6.837 c 6.119,0 12.238,-0.056 18.358,-0.056 9.097,-0.054 13.893,-6.119 13.893,-12.79 0,-5.292 -2.426,-10.639 -9.758,-12.129 l 11.687,-13.175 z" /></g><g
       id="g531"
       transform="translate(311.86,225.77)"><path
         inkscape:connector-curvature="0"
         id="path529"
         style="fill:#ffffff"
         d="M 0,0 H -28.888 V 38.591 H 0 v -7.057 h -21.666 v -8.876 h 20.895 v -6.78 H -21.666 V 7.167 H 0 Z" /></g><path
       inkscape:connector-curvature="0"
       id="path533"
       style="fill:#ffffff"
       d="m 316,244.57 h 19.296 v -2.867 H 316 Z" /><g
       id="g537"
       transform="translate(347.69,264.37)"><path
         inkscape:connector-curvature="0"
         id="path535"
         style="fill:#ffffff"
         d="m 0,0 v -31.865 h 19.846 v -6.726 H -7.277 V 0 Z" /></g><g
       id="g541"
       transform="translate(375.25,244.68)"><path
         inkscape:connector-curvature="0"
         id="path539"
         style="fill:#ffffff"
         d="m 0,0 c 0.166,-6.34 3.584,-13.12 12.682,-13.12 9.095,0 12.513,6.836 12.623,13.176 C 25.416,6.561 21.777,13.838 12.682,13.838 3.584,13.838 -0.164,6.506 0,0 m 32.473,0.166 c -0.112,-9.979 -6.231,-19.957 -19.791,-19.957 -13.563,0 -19.848,9.758 -19.848,19.901 0,10.145 6.506,20.344 19.848,20.344 13.285,0 19.9,-10.199 19.791,-20.288" /></g><path
       inkscape:connector-curvature="0"
       id="path543"
       style="fill:#ffffff"
       d="m 411.41,264.36 h 7.221 v -38.591 h -7.221 z" /><g
       id="g547"
       transform="translate(431.09,257.58)"><path
         inkscape:connector-curvature="0"
         id="path545"
         style="fill:#ffffff"
         d="m 0,0 v -12.349 h 11.08 c 4.631,0 6.617,3.087 6.617,6.175 C 17.697,-3.087 15.656,0 11.08,0 Z M 26.902,-31.81 H 18.248 L 7.002,-18.909 H 0 V -31.81 H -7.277 V 6.837 c 6.119,0 12.238,-0.056 18.357,-0.056 9.098,-0.054 13.893,-6.119 13.893,-12.79 0,-5.292 -2.424,-10.639 -9.758,-12.129 l 11.687,-13.175 z" /></g><g
       id="g551"
       transform="translate(488.04,225.77)"><path
         inkscape:connector-curvature="0"
         id="path549"
         style="fill:#ffffff"
         d="M 0,0 H -28.889 V 38.591 H 0 v -7.057 h -21.666 v -8.876 h 20.895 v -6.78 H -21.666 V 7.167 H 0 Z" /></g><g
       id="g555"
       transform="translate(250.1,392.51)"><path
         inkscape:connector-curvature="0"
         id="path553"
         style="fill:#ffffff"
         d="m 0,0 -29.588,-72.121 h -5.959 L -65.136,0 h 5.959 L -32.568,-65.752 -5.959,0 Z" /></g><path
       inkscape:connector-curvature="0"
       id="path557"
       style="fill:#ffffff"
       d="m 262.23,392.51 h 5.445 v -71.916 h -5.445 z" /><g
       id="g561"
       transform="translate(288.42,392.51)"><path
         inkscape:connector-curvature="0"
         id="path559"
         style="fill:#ffffff"
         d="M 0,0 48.388,-59.484 V 0 h 5.445 V -71.916 H 51.677 L 3.185,-12.534 V -71.916 H -2.363 V 0 Z" /></g><g
       id="g565"
       transform="translate(408.53,378.64)"><path
         inkscape:connector-curvature="0"
         id="path563"
         style="fill:#ffffff"
         d="m 0,0 c -5.24,8.424 -13.664,9.657 -21.781,9.76 -8.424,0 -21.78,-3.082 -21.78,-14.589 0,-9.144 9.864,-11.301 21.987,-13.562 13.869,-2.671 28.252,-5.136 28.252,-20.649 -0.104,-16.233 -16.438,-20.137 -28.459,-20.137 -11.198,0 -23.938,4.623 -29.485,15.616 l 4.932,2.466 c 4.418,-8.733 15.719,-13.048 24.553,-13.048 8.836,0 22.912,2.466 22.912,15.205 0.101,10.788 -11.817,13.151 -23.631,15.411 -13.15,2.568 -26.609,5.24 -26.609,18.493 -0.307,15.205 15.513,19.93 27.328,19.93 10.275,0 19.213,-1.643 26.301,-12.225 z" /></g></g></svg>